<?xml version="1.0" encoding="UTF-8" standalone="no"?>
<svg
   xmlns:dc="http://purl.org/dc/elements/1.1/"
   xmlns:cc="http://creativecommons.org/ns#"
   xmlns:rdf="http://www.w3.org/1999/02/22-rdf-syntax-ns#"
   xmlns:svg="http://www.w3.org/2000/svg"
   xmlns="http://www.w3.org/2000/svg"
   style="fill:none"
   id="svg86"
   version="1.1"
   viewBox="0 0 220 35"
   height="35"
   width="220">
  <metadata
     id="metadata92">
    <rdf:RDF>
      <cc:Work
         rdf:about="">
        <dc:format>image/svg+xml</dc:format>
        <dc:type
           rdf:resource="http://purl.org/dc/dcmitype/StillImage" />
        <dc:title></dc:title>
      </cc:Work>
    </rdf:RDF>
  </metadata>
  <defs
     id="defs90" />
  <path
     style="stroke:#000000;stroke-width:0.49999997"
     id="path2"
     d="m 150.60287,28.493951 h 66.06382" />
  <path
     style="fill:#000000;stroke-width:1"
     id="path4"
     d="m 46.185582,27.332199 c 0.08366,0 0.151271,0.02897 0.202821,0.08692 0.05795,0.05155 0.08692,0.119158 0.08692,0.202822 v 2.327618 c 0,0.1095 -0.04829,0.196423 -0.144873,0.260771 -0.289745,0.199562 -0.611724,0.354093 -0.965816,0.463592 -0.354214,0.1095 -0.714705,0.164189 -1.081715,0.164189 -0.656756,0 -1.249164,-0.151271 -1.777103,-0.453934 -0.528061,-0.302663 -0.943241,-0.717964 -1.245904,-1.245904 -0.302663,-0.527939 -0.453934,-1.120347 -0.453934,-1.777103 0,-0.656755 0.151271,-1.249163 0.453934,-1.777103 0.302663,-0.527939 0.717843,-0.943241 1.245904,-1.245904 0.527939,-0.302662 1.120347,-0.453934 1.777103,-0.453934 0.341174,0 0.669673,0.04189 0.985133,0.125557 0.321858,0.08366 0.608464,0.202821 0.859577,0.357352 0.09006,0.05795 0.135214,0.138474 0.135214,0.241454 0,0.08366 -0.02897,0.154531 -0.08692,0.21248 -0.05155,0.05795 -0.112759,0.08692 -0.183505,0.08692 -0.06447,0 -0.122297,-0.01606 -0.173848,-0.04829 -0.482908,-0.264031 -0.994791,-0.395985 -1.535648,-0.395985 -0.547377,0 -1.039944,0.125556 -1.4777,0.376668 -0.431479,0.251113 -0.769515,0.598807 -1.014108,1.043082 -0.244714,0.437878 -0.36701,0.930444 -0.36701,1.4777 0,0.547256 0.122296,1.043082 0.36701,1.487358 0.244593,0.437877 0.582629,0.782312 1.014108,1.033424 0.437756,0.251113 0.930323,0.376669 1.4777,0.376669 0.276827,0 0.553654,-0.03863 0.830602,-0.115898 0.283226,-0.07727 0.534338,-0.183505 0.753337,-0.31872 v -1.912317 h -1.52599 c -0.08378,0 -0.154531,-0.02572 -0.21248,-0.07727 -0.05795,-0.05795 -0.08692,-0.128815 -0.08692,-0.212479 0,-0.08366 0.02897,-0.151271 0.08692,-0.202822 0.05795,-0.05795 0.128695,-0.08692 0.21248,-0.08692 z" />
  <path
     style="fill:#000000;stroke-width:1"
     id="path6"
     d="m 51.961046,25.806208 c 0.08366,0 0.151271,0.02898 0.202822,0.08692 0.05795,0.05795 0.08692,0.128815 0.08692,0.212479 v 4.34618 c 0,0.08366 -0.02897,0.154531 -0.08692,0.21248 -0.05155,0.05155 -0.119158,0.07727 -0.202822,0.07727 -0.08378,0 -0.154531,-0.02572 -0.21248,-0.07727 -0.05155,-0.05795 -0.07726,-0.128816 -0.07726,-0.21248 V 29.80469 c -0.16105,0.289745 -0.402504,0.534459 -0.724363,0.734021 -0.321979,0.199562 -0.672933,0.299403 -1.05274,0.299403 -0.431479,0 -0.820944,-0.112638 -1.168638,-0.338036 -0.341296,-0.225397 -0.611725,-0.534459 -0.811287,-0.927184 -0.193163,-0.392725 -0.289745,-0.833862 -0.289745,-1.323169 0,-0.489307 0.09972,-0.927184 0.299404,-1.313511 0.199561,-0.392725 0.46999,-0.698648 0.811286,-0.917526 0.347694,-0.218878 0.730761,-0.328378 1.149322,-0.328378 0.386327,0 0.740419,0.09332 1.062398,0.280087 0.321859,0.186765 0.563313,0.431358 0.724363,0.734021 v -0.598807 c 0,-0.08366 0.02571,-0.15453 0.07726,-0.212479 0.05795,-0.05795 0.128695,-0.08692 0.21248,-0.08692 z m -2.008899,4.491049 c 0.334776,0 0.63418,-0.08692 0.89821,-0.260771 0.270428,-0.180246 0.479649,-0.424959 0.627781,-0.734021 0.15453,-0.31546 0.231796,-0.666413 0.231796,-1.05274 0,-0.373409 -0.07727,-0.714705 -0.231796,-1.023766 -0.148132,-0.309062 -0.357353,-0.550516 -0.627781,-0.724363 -0.26403,-0.180245 -0.563434,-0.270429 -0.89821,-0.270429 -0.334897,0 -0.637439,0.08692 -0.907868,0.260771 -0.26403,0.173847 -0.47325,0.415301 -0.627781,0.724363 -0.148132,0.302663 -0.222138,0.647097 -0.222138,1.033424 0,0.386327 0.07401,0.73728 0.222138,1.05274 0.148012,0.309062 0.354093,0.553775 0.618123,0.734021 0.270429,0.173847 0.57623,0.260771 0.917526,0.260771 z" />
  <path
     style="fill:#000000;stroke-width:1"
     id="path8"
     d="m 56.109833,25.69031 c 0.42496,0 0.811286,0.1095 1.158981,0.328378 0.347694,0.218878 0.618122,0.524801 0.811286,0.917526 0.199562,0.386327 0.299403,0.824204 0.299403,1.313511 0,0.482908 -0.09984,0.923924 -0.299403,1.323169 -0.193164,0.392725 -0.463592,0.701787 -0.811286,0.927184 -0.341296,0.225398 -0.724363,0.338036 -1.149323,0.338036 -0.36701,0 -0.708306,-0.09018 -1.023765,-0.270429 -0.309062,-0.186765 -0.560174,-0.431358 -0.753338,-0.734021 v 0.63744 c 0,0.08366 -0.02897,0.15453 -0.08692,0.212479 -0.05155,0.05795 -0.119158,0.08692 -0.202822,0.08692 -0.08378,0 -0.15453,-0.02897 -0.212479,-0.08692 -0.05155,-0.05795 -0.07727,-0.128816 -0.07727,-0.212479 v -6.577213 c 0,-0.08366 0.02571,-0.151271 0.07727,-0.202822 0.05795,-0.05795 0.128695,-0.08692 0.212479,-0.08692 0.08366,0 0.151271,0.02897 0.202822,0.08692 0.05795,0.05155 0.08692,0.119158 0.08692,0.202822 v 2.849159 c 0.173847,-0.31546 0.418441,-0.569832 0.734021,-0.762995 0.31546,-0.193163 0.659895,-0.289745 1.033424,-0.289745 z m -0.04829,4.606947 c 0.334777,0 0.63418,-0.09018 0.89821,-0.270429 0.270429,-0.180246 0.479649,-0.42496 0.627781,-0.734021 0.154531,-0.31546 0.231796,-0.663154 0.231796,-1.043082 0,-0.386327 -0.07726,-0.730761 -0.231796,-1.033424 -0.148132,-0.309062 -0.357352,-0.550516 -0.627781,-0.724363 -0.26403,-0.173847 -0.563433,-0.260771 -0.89821,-0.260771 -0.341295,0 -0.647097,0.08692 -0.917526,0.260771 -0.270428,0.167449 -0.479769,0.405643 -0.627781,0.714705 -0.148132,0.309061 -0.222137,0.656755 -0.222137,1.043082 0,0.386327 0.074,0.73728 0.222137,1.05274 0.154531,0.309062 0.363751,0.553775 0.627781,0.734021 0.270429,0.173847 0.576231,0.260771 0.917526,0.260771 z" />
  <path
     style="fill:#000000;stroke-width:1"
     id="path10"
     d="m 60.133064,30.451787 c 0,0.08366 -0.02897,0.154531 -0.08692,0.21248 -0.05155,0.05155 -0.119158,0.07727 -0.202822,0.07727 -0.08378,0 -0.154531,-0.02572 -0.21248,-0.07727 -0.05155,-0.05795 -0.07727,-0.128816 -0.07727,-0.21248 V 26.00903 c 0,-0.08366 0.02571,-0.151271 0.07727,-0.202822 0.05795,-0.05795 0.128696,-0.08692 0.21248,-0.08692 0.08366,0 0.151271,0.02897 0.202822,0.08692 0.05795,0.05155 0.08692,0.119158 0.08692,0.202822 z m -0.289745,-5.3796 c -0.128816,0 -0.228657,-0.02897 -0.299403,-0.08692 -0.07087,-0.06435 -0.10624,-0.154531 -0.10624,-0.270429 v -0.09658 c 0,-0.115898 0.03537,-0.202821 0.10624,-0.26077 0.07727,-0.06435 0.180245,-0.09658 0.309061,-0.09658 0.257511,0 0.386327,0.119158 0.386327,0.357352 v 0.09658 c 0,0.115898 -0.03549,0.206081 -0.10624,0.270429 -0.06447,0.05795 -0.16105,0.08692 -0.289745,0.08692 z" />
  <path
     style="fill:#000000;stroke-width:1"
     id="path12"
     d="m 63.966029,25.69031 c 0.598807,0 1.036684,0.177107 1.313511,0.531199 0.283347,0.347694 0.42496,0.811286 0.42496,1.390777 v 2.839501 c 0,0.08366 -0.02898,0.154531 -0.08692,0.21248 -0.05795,0.05155 -0.125556,0.07727 -0.202821,0.07727 -0.08366,0 -0.154531,-0.02572 -0.21248,-0.07727 -0.05155,-0.05795 -0.07727,-0.128816 -0.07727,-0.21248 V 27.64126 c 0,-0.418561 -0.106239,-0.756597 -0.318719,-1.014108 -0.206081,-0.26403 -0.52794,-0.395985 -0.965817,-0.395985 -0.276827,0 -0.540857,0.06435 -0.79197,0.193164 -0.244714,0.128816 -0.444276,0.302663 -0.598806,0.521541 -0.154531,0.21248 -0.231796,0.444276 -0.231796,0.695388 v 2.810527 c 0,0.08366 -0.02897,0.154531 -0.08692,0.21248 -0.05155,0.05155 -0.119158,0.07727 -0.202821,0.07727 -0.08366,0 -0.154531,-0.02572 -0.21248,-0.07727 -0.05155,-0.05795 -0.07727,-0.128816 -0.07727,-0.21248 v -4.326859 c 0,-0.08366 0.02571,-0.151271 0.07727,-0.202822 0.05795,-0.05795 0.128816,-0.08692 0.21248,-0.08692 0.08366,0 0.151271,0.02897 0.202821,0.08692 0.05795,0.05155 0.08692,0.119158 0.08692,0.202822 v 0.531199 c 0.173847,-0.276827 0.421699,-0.505485 0.743679,-0.68573 0.328377,-0.186765 0.663154,-0.280087 1.004449,-0.280087 z" />
  <path
     style="fill:#000000;stroke-width:1"
     id="path14"
     d="m 71.394368,27.988954 c 0,0.07727 -0.02897,0.144873 -0.08692,0.202822 -0.05795,0.05155 -0.125556,0.07727 -0.202822,0.07727 h -3.650788 c 0,0.386327 0.07727,0.734021 0.231796,1.043082 0.16093,0.302663 0.386327,0.544117 0.676072,0.724363 0.296144,0.173847 0.643838,0.260771 1.043083,0.260771 0.309061,0 0.585888,-0.06435 0.830602,-0.193164 0.244714,-0.128816 0.441016,-0.293005 0.589148,-0.492566 0.07087,-0.05795 0.138474,-0.08692 0.202822,-0.08692 0.06435,0 0.122296,0.02572 0.173847,0.07727 0.05155,0.05155 0.07726,0.1095 0.07726,0.173847 0,0.07087 -0.03223,0.138474 -0.09658,0.202822 -0.206082,0.251112 -0.466852,0.457194 -0.782312,0.618123 -0.309062,0.160929 -0.637439,0.241454 -0.985133,0.241454 -0.495827,0 -0.933583,-0.10624 -1.313511,-0.31872 C 67.721004,30.306929 67.42486,30.010785 67.21238,29.630857 66.9999,29.24453 66.893661,28.800254 66.893661,28.29803 c 0,-0.52794 0.10298,-0.988393 0.309061,-1.381119 0.21248,-0.399244 0.492567,-0.701786 0.840261,-0.907867 0.347694,-0.21248 0.717964,-0.31872 1.110689,-0.31872 0.386327,0 0.746939,0.09018 1.081715,0.270429 0.341296,0.180245 0.618123,0.444276 0.830603,0.79197 0.212479,0.347694 0.321979,0.759735 0.328377,1.236245 z m -2.240695,-1.73847 c -0.373409,0 -0.721103,0.128816 -1.043082,0.386327 -0.31546,0.25751 -0.518282,0.627781 -0.608465,1.110689 h 3.293436 v -0.07727 c -0.03223,-0.28974 -0.128816,-0.540853 -0.289745,-0.753333 -0.160929,-0.218878 -0.363751,-0.383067 -0.608465,-0.492566 -0.238194,-0.115898 -0.486168,-0.173847 -0.743679,-0.173847 z" />
  <path
     style="fill:#000000;stroke-width:1"
     id="path16"
     d="m 73.554538,26.366382 v 3.235486 c 0,0.244714 0.04503,0.412042 0.135215,0.502225 0.09018,0.08366 0.20922,0.125556 0.357352,0.125556 0.03863,0 0.08692,-0.0064 0.144873,-0.01932 0.05795,-0.01932 0.10298,-0.02897 0.135214,-0.02897 0.05795,0 0.10624,0.02571 0.144872,0.07726 0.04503,0.04503 0.06761,0.09984 0.06761,0.164189 0,0.09018 -0.05155,0.167448 -0.154531,0.231796 -0.10298,0.05795 -0.225398,0.08692 -0.36701,0.08692 -0.173847,0 -0.328378,-0.01606 -0.463593,-0.04829 -0.135214,-0.03223 -0.267169,-0.128815 -0.395984,-0.289745 -0.122297,-0.160929 -0.183506,-0.41856 -0.183506,-0.772653 v -3.264461 h -0.705046 c -0.07726,0 -0.144873,-0.02571 -0.202822,-0.07727 -0.05155,-0.05155 -0.07726,-0.115898 -0.07726,-0.193163 0,-0.07727 0.02571,-0.141613 0.07726,-0.193163 0.05795,-0.05155 0.125557,-0.07727 0.202822,-0.07727 h 0.705046 v -1.072056 c 0,-0.08366 0.02572,-0.151271 0.07727,-0.202822 0.05795,-0.05795 0.128816,-0.08692 0.212479,-0.08692 0.08366,0 0.151271,0.02897 0.202822,0.08692 0.05795,0.05155 0.08692,0.119158 0.08692,0.202822 v 1.072056 h 0.965817 c 0.07087,0 0.131955,0.02898 0.183506,0.08692 0.05795,0.05795 0.08692,0.122296 0.08692,0.193163 0,0.07727 -0.02571,0.141613 -0.07726,0.193164 -0.05155,0.04503 -0.115898,0.06761 -0.193164,0.06761 z" />
  <path
     style="fill:#000000;stroke-width:1"
     id="path18"
     d="m 81.226022,23.980814 c 0.354213,0 0.672933,0.08366 0.956159,0.251113 0.283346,0.160929 0.502224,0.389586 0.656755,0.68573 0.16105,0.289745 0.241454,0.618122 0.241454,0.985133 0,0.36701 -0.0804,0.701786 -0.241454,1.004449 -0.154531,0.302663 -0.373409,0.540858 -0.656755,0.714705 -0.283226,0.173847 -0.601946,0.26077 -0.956159,0.26077 h -1.999241 v 2.569073 c 0,0.08366 -0.02898,0.154531 -0.08692,0.21248 -0.05143,0.05155 -0.119036,0.07727 -0.202821,0.07727 -0.08366,0 -0.154531,-0.02572 -0.21248,-0.07727 -0.05143,-0.05795 -0.07726,-0.128816 -0.07726,-0.21248 v -6.181228 c 0,-0.08366 0.02584,-0.151271 0.07726,-0.202821 0.05795,-0.05795 0.128816,-0.08692 0.21248,-0.08692 z m 0,3.341727 c 0.37353,0 0.676072,-0.135215 0.907868,-0.405644 0.231796,-0.270428 0.347694,-0.608464 0.347694,-1.014107 0,-0.399245 -0.115898,-0.724363 -0.347694,-0.975475 -0.231796,-0.251113 -0.534338,-0.376669 -0.907868,-0.376669 h -1.999241 v 2.771895 z" />
  <path
     style="fill:#000000;stroke-width:1"
     id="path20"
     d="m 83.975823,29.959221 c -0.05155,-0.08366 -0.07726,-0.154531 -0.07726,-0.21248 0,-0.08366 0.04177,-0.148132 0.125556,-0.193163 0.03863,-0.03863 0.09006,-0.05795 0.154531,-0.05795 0.07726,0 0.148011,0.03223 0.21248,0.09658 0.379807,0.502225 0.885291,0.753337 1.516332,0.753337 0.309061,0 0.576231,-0.07087 0.801628,-0.212479 0.231796,-0.148132 0.347694,-0.360612 0.347694,-0.637439 0,-0.270429 -0.10624,-0.473251 -0.318719,-0.608465 -0.21248,-0.135214 -0.508744,-0.251112 -0.888552,-0.347694 -0.534459,-0.135215 -0.95302,-0.309062 -1.255562,-0.521541 -0.302663,-0.218879 -0.453934,-0.537598 -0.453934,-0.956159 0,-0.26403 0.07401,-0.498965 0.222138,-0.705046 0.148012,-0.21248 0.347694,-0.376669 0.598807,-0.492567 0.25751,-0.115898 0.547256,-0.173847 0.869235,-0.173847 0.276827,0 0.553654,0.05469 0.830602,0.164189 0.283226,0.10298 0.52468,0.270429 0.724363,0.502225 0.05795,0.04503 0.08692,0.109499 0.08692,0.193163 0,0.07727 -0.03223,0.144873 -0.09658,0.202822 -0.04515,0.03863 -0.103101,0.05795 -0.173847,0.05795 -0.06447,0 -0.122418,-0.02572 -0.173847,-0.07727 -0.154531,-0.173847 -0.338036,-0.305802 -0.550516,-0.395985 -0.21248,-0.09018 -0.441137,-0.135214 -0.68573,-0.135214 -0.302663,0 -0.563433,0.07087 -0.782312,0.21248 -0.212479,0.141613 -0.318719,0.354092 -0.318719,0.637439 0.0128,0.257511 0.128695,0.453934 0.347694,0.589148 0.225277,0.135214 0.553654,0.257511 0.985133,0.367011 0.334776,0.08366 0.611604,0.177106 0.830603,0.280086 0.218878,0.102981 0.395985,0.247853 0.531199,0.434618 0.141613,0.186765 0.21248,0.434618 0.21248,0.743679 0,0.418561 -0.167449,0.753337 -0.502225,1.00445 -0.334897,0.244713 -0.750198,0.36701 -1.245904,0.36701 -0.785571,0 -1.410093,-0.293005 -1.873685,-0.878893 z" />
  <path
     style="fill:#000000;stroke-width:1"
     id="path22"
     d="m 92.462939,25.719285 c 0.08366,0 0.151271,0.02897 0.202822,0.08692 0.05795,0.05155 0.08692,0.119158 0.08692,0.202822 v 4.259252 c 0,0.508623 -0.09984,0.943241 -0.299403,1.303853 -0.199683,0.360612 -0.47651,0.634179 -0.830603,0.820944 -0.354213,0.186765 -0.753337,0.280087 -1.197612,0.280087 -0.270429,0 -0.524801,-0.02897 -0.762996,-0.08692 -0.231796,-0.05795 -0.424959,-0.135215 -0.57949,-0.231797 -0.135214,-0.08366 -0.202821,-0.177106 -0.202821,-0.280086 0,-0.01292 0.0064,-0.04503 0.01932,-0.09658 0.01932,-0.06435 0.05143,-0.112638 0.09658,-0.144873 0.04503,-0.03223 0.09332,-0.04829 0.144872,-0.04829 0.03863,0 0.07727,0.0097 0.115898,0.02897 0.412042,0.225398 0.804767,0.338036 1.178297,0.338036 0.534338,0 0.956158,-0.167449 1.26522,-0.502225 0.31546,-0.334776 0.47325,-0.79197 0.47325,-1.37146 v -0.338036 c -0.16105,0.270429 -0.392846,0.489307 -0.695388,0.656756 -0.302663,0.160929 -0.631041,0.241454 -0.985133,0.241454 -0.560174,0 -0.985133,-0.167449 -1.274879,-0.502225 -0.289745,-0.334776 -0.434617,-0.78871 -0.434617,-1.361802 v -2.965057 c 0,-0.08366 0.02571,-0.151271 0.07726,-0.202822 0.05795,-0.05795 0.128695,-0.08692 0.21248,-0.08692 0.08366,0 0.151271,0.02897 0.202821,0.08692 0.05795,0.05155 0.08692,0.119158 0.08692,0.202822 v 2.878134 c 0,0.463592 0.09972,0.814546 0.299403,1.05274 0.205961,0.238195 0.52468,0.357353 0.956159,0.357353 0.263909,0 0.515022,-0.06435 0.753337,-0.193164 0.244593,-0.135214 0.437757,-0.309061 0.57949,-0.521541 0.148012,-0.218878 0.222138,-0.450674 0.222138,-0.695388 v -2.878134 c 0,-0.08366 0.02571,-0.151271 0.07726,-0.202822 0.05795,-0.05795 0.128696,-0.08692 0.21248,-0.08692 z" />
  <path
     style="fill:#000000;stroke-width:1"
     id="path24"
     d="m 96.359769,25.69031 c 0.302542,0 0.58275,0.03537 0.84026,0.10624 0.264031,0.06435 0.473251,0.154531 0.627781,0.270429 0.16093,0.115898 0.241455,0.241454 0.241455,0.376668 0,0.07087 -0.02571,0.135215 -0.07727,0.193164 -0.04503,0.05795 -0.103101,0.08692 -0.173847,0.08692 -0.06447,0 -0.119157,-0.01292 -0.164189,-0.03863 -0.03863,-0.02571 -0.08366,-0.06435 -0.135214,-0.115898 -0.08366,-0.08366 -0.164189,-0.144872 -0.241454,-0.183505 -0.09658,-0.04503 -0.225398,-0.08052 -0.386327,-0.10624 -0.154531,-0.03223 -0.321979,-0.04829 -0.502225,-0.04829 -0.354213,0 -0.679331,0.09018 -0.975475,0.270429 -0.289745,0.180246 -0.518402,0.42496 -0.68573,0.734021 -0.167448,0.309061 -0.251112,0.650357 -0.251112,1.023766 0,0.386327 0.08053,0.734021 0.241454,1.043082 0.160929,0.309062 0.383067,0.553775 0.666414,0.734021 0.289745,0.173847 0.618123,0.260771 0.985133,0.260771 0.231796,0 0.415301,-0.01932 0.550516,-0.05795 0.141613,-0.03863 0.280086,-0.09332 0.415301,-0.164189 0.04503,-0.02571 0.122296,-0.08366 0.231796,-0.173847 0.05143,-0.04503 0.09658,-0.07727 0.135214,-0.09658 0.03863,-0.02572 0.0804,-0.03863 0.125556,-0.03863 0.07727,0 0.138354,0.02571 0.183506,0.07727 0.04503,0.04503 0.06761,0.106239 0.06761,0.183505 0,0.109499 -0.07726,0.228536 -0.231796,0.357352 -0.154531,0.122297 -0.367011,0.228536 -0.637439,0.31872 -0.270429,0.09018 -0.569832,0.135214 -0.89821,0.135214 -0.469991,0 -0.888552,-0.1095 -1.255562,-0.328378 -0.36701,-0.225397 -0.653617,-0.534459 -0.859577,-0.927184 -0.199683,-0.392725 -0.299403,-0.833862 -0.299403,-1.323169 0,-0.469991 0.10298,-0.89821 0.309061,-1.284537 0.205961,-0.392725 0.495826,-0.705046 0.869235,-0.936842 0.373409,-0.231796 0.801628,-0.347694 1.284537,-0.347694 z" />
  <path
     style="fill:#000000;stroke-width:1"
     id="path26"
     d="m 101.43683,25.767575 c 0.57949,0 1.01084,0.183506 1.29419,0.550516 0.28323,0.360612 0.42496,0.827343 0.42496,1.400434 v 2.733262 c 0,0.08366 -0.029,0.154531 -0.0869,0.21248 -0.0516,0.05155 -0.11916,0.07727 -0.20283,0.07727 -0.0838,0 -0.15453,-0.02572 -0.21248,-0.07727 -0.0515,-0.05795 -0.0773,-0.128816 -0.0773,-0.21248 v -2.733262 c 0,-0.41856 -0.0998,-0.756596 -0.2994,-1.014107 -0.19969,-0.26403 -0.51189,-0.395985 -0.93685,-0.395985 -0.27042,0 -0.52806,0.06435 -0.77265,0.193163 -0.23831,0.128816 -0.43148,0.302663 -0.579489,0.521541 -0.14813,0.21248 -0.22214,0.444276 -0.22214,0.695388 v 2.733262 c 0,0.08366 -0.029,0.154531 -0.0869,0.21248 -0.0516,0.05155 -0.11916,0.07727 -0.20282,0.07727 -0.0838,0 -0.15453,-0.02572 -0.21248,-0.07727 -0.0516,-0.05795 -0.0773,-0.128816 -0.0773,-0.21248 v -6.567555 c 0,-0.08366 0.0257,-0.151271 0.0773,-0.202821 0.0579,-0.05795 0.12869,-0.08692 0.21248,-0.08692 0.0837,0 0.15127,0.02898 0.20282,0.08692 0.0579,0.05155 0.0869,0.119158 0.0869,0.202821 v 2.829844 c 0.17385,-0.276827 0.415299,-0.502225 0.724369,-0.676072 0.30906,-0.180245 0.62452,-0.270429 0.9465,-0.270429 z" />
  <path
     style="fill:#000000;stroke-width:1"
     id="path28"
     d="m 109.23435,28.269041 c 0,0.482909 -0.10624,0.920786 -0.31872,1.313511 -0.21248,0.392725 -0.50536,0.701787 -0.87889,0.927184 -0.37341,0.218878 -0.78871,0.328378 -1.24591,0.328378 -0.45707,0 -0.87237,-0.1095 -1.2459,-0.328378 -0.37341,-0.225397 -0.66642,-0.534459 -0.8789,-0.927184 -0.21248,-0.392725 -0.31872,-0.830602 -0.31872,-1.313511 0,-0.482908 0.10624,-0.920786 0.31872,-1.313511 0.21248,-0.392725 0.50549,-0.701787 0.8789,-0.927184 0.37353,-0.225398 0.78883,-0.338036 1.2459,-0.338036 0.4572,0 0.8725,0.112638 1.24591,0.338036 0.37353,0.225397 0.66641,0.534459 0.87889,0.927184 0.21248,0.392725 0.31872,0.830603 0.31872,1.313511 z m -0.57949,0 c 0,-0.386327 -0.0804,-0.734021 -0.24146,-1.043082 -0.16093,-0.309062 -0.38632,-0.550516 -0.67607,-0.724363 -0.28322,-0.180245 -0.5988,-0.270429 -0.9465,-0.270429 -0.34769,0 -0.66315,0.09018 -0.9465,0.270429 -0.28322,0.173847 -0.50862,0.415301 -0.67607,0.724363 -0.16093,0.309061 -0.24146,0.656755 -0.24146,1.043082 0,0.379928 0.0805,0.724363 0.24146,1.033424 0.16745,0.309062 0.39285,0.553775 0.67607,0.734021 0.28335,0.173847 0.59881,0.260771 0.9465,0.260771 0.3477,0 0.66328,-0.08692 0.9465,-0.260771 0.28975,-0.173847 0.51514,-0.415301 0.67607,-0.724363 0.16105,-0.309061 0.24146,-0.656755 0.24146,-1.043082 z" />
  <path
     style="fill:#000000;stroke-width:1"
     id="path30"
     d="m 111.05721,30.451787 c 0,0.08366 -0.029,0.154531 -0.0869,0.21248 -0.0519,0.05155 -0.11952,0.07727 -0.20282,0.07727 -0.0833,0 -0.15453,-0.02572 -0.21248,-0.07727 -0.0519,-0.05795 -0.0773,-0.128816 -0.0773,-0.21248 v -6.567555 c 0,-0.08366 0.0254,-0.151271 0.0773,-0.202821 0.0579,-0.05795 0.12918,-0.08692 0.21248,-0.08692 0.0833,0 0.15091,0.02898 0.20282,0.08692 0.058,0.05155 0.0869,0.119158 0.0869,0.202821 z" />
  <path
     style="fill:#000000;stroke-width:1"
     id="path32"
     d="m 117.11046,28.269041 c 0,0.482909 -0.10624,0.920786 -0.31872,1.313511 -0.21248,0.392725 -0.50584,0.701787 -0.87889,0.927184 -0.37425,0.218878 -0.78955,0.328378 -1.2459,0.328378 -0.45756,0 -0.87286,-0.1095 -1.24591,-0.328378 -0.37425,-0.225397 -0.66641,-0.534459 -0.87889,-0.927184 -0.21248,-0.392725 -0.31872,-0.830602 -0.31872,-1.313511 0,-0.482908 0.10624,-0.920786 0.31872,-1.313511 0.21248,-0.392725 0.50464,-0.701787 0.87889,-0.927184 0.37305,-0.225398 0.78835,-0.338036 1.24591,-0.338036 0.45635,0 0.87165,0.112638 1.2459,0.338036 0.37305,0.225397 0.66641,0.534459 0.87889,0.927184 0.21248,0.392725 0.31872,0.830603 0.31872,1.313511 z m -0.57949,0 c 0,-0.386327 -0.0809,-0.734021 -0.24145,-1.043082 -0.16177,-0.309062 -0.38633,-0.550516 -0.67607,-0.724363 -0.28371,-0.180245 -0.59881,-0.270429 -0.9465,-0.270429 -0.3477,0 -0.664,0.09018 -0.9465,0.270429 -0.28371,0.173847 -0.50947,0.415301 -0.67607,0.724363 -0.16178,0.309061 -0.24146,0.656755 -0.24146,1.043082 0,0.379928 0.0797,0.724363 0.24146,1.033424 0.1666,0.309062 0.39236,0.553775 0.67607,0.734021 0.2825,0.173847 0.5988,0.260771 0.9465,0.260771 0.34769,0 0.66279,-0.08692 0.9465,-0.260771 0.28974,-0.173847 0.5143,-0.415301 0.67607,-0.724363 0.16057,-0.309061 0.24145,-0.656755 0.24145,-1.043082 z" />
  <path
     style="fill:#000000;stroke-width:1"
     id="path34"
     d="m 122.46713,25.806208 c 0.0845,0 0.15211,0.02898 0.20282,0.08692 0.0579,0.05155 0.0869,0.122296 0.0869,0.212479 v 4.181987 c 0,0.502225 -0.10624,0.930444 -0.31872,1.284537 -0.20523,0.360612 -0.49257,0.634179 -0.85958,0.820944 -0.35976,0.186765 -0.77506,0.280087 -1.2459,0.280087 -0.22455,0 -0.46359,-0.02897 -0.7147,-0.08692 -0.24387,-0.05795 -0.45635,-0.131955 -0.63744,-0.222138 -0.17385,-0.09018 -0.27285,-0.183506 -0.29941,-0.280087 -0.0447,-0.04503 -0.0676,-0.09658 -0.0676,-0.154531 0,-0.06435 0.029,-0.115898 0.0869,-0.154531 0.0266,-0.01932 0.0579,-0.02897 0.0966,-0.02897 0.0386,0 0.11349,0.02258 0.22214,0.06761 l 0.20282,0.08692 c 0.39961,0.15453 0.77265,0.231796 1.12035,0.231796 0.57345,0 1.02135,-0.164189 1.34248,-0.492567 0.32838,-0.321979 0.49257,-0.759736 0.49257,-1.313511 v -0.598806 c -0.16057,0.347694 -0.4153,0.621382 -0.76299,0.820944 -0.3477,0.193163 -0.71109,0.289745 -1.09138,0.289745 -0.44427,0 -0.84629,-0.1095 -1.20727,-0.328378 -0.35373,-0.225397 -0.63382,-0.534459 -0.84026,-0.927184 -0.20524,-0.392725 -0.30906,-0.833862 -0.30906,-1.323169 0,-0.482909 0.10382,-0.920786 0.30906,-1.313511 0.20644,-0.392725 0.48653,-0.698648 0.84026,-0.917526 0.36098,-0.225398 0.76058,-0.338036 1.19761,-0.338036 0.40565,0 0.77628,0.10298 1.11069,0.309061 0.34166,0.199562 0.59277,0.441017 0.75334,0.724363 v -0.618123 c 0,-0.08366 0.0266,-0.15453 0.0773,-0.212479 0.0579,-0.05795 0.12917,-0.08692 0.21248,-0.08692 z m -2.09583,4.491049 c 0.35494,0 0.67004,-0.08366 0.9465,-0.251113 0.28371,-0.173847 0.50223,-0.415301 0.65676,-0.724363 0.16177,-0.315459 0.24145,-0.669673 0.24145,-1.062398 0,-0.392725 -0.0797,-0.743679 -0.24145,-1.05274 -0.15453,-0.309062 -0.37305,-0.547256 -0.65676,-0.714705 -0.27646,-0.173847 -0.59156,-0.260771 -0.9465,-0.260771 -0.34769,0 -0.66279,0.09018 -0.9465,0.270429 -0.27646,0.173847 -0.49498,0.415301 -0.65675,0.724363 -0.15453,0.309061 -0.2318,0.653496 -0.2318,1.033424 0,0.386327 0.0773,0.734021 0.2318,1.043082 0.16177,0.309062 0.38029,0.553775 0.65675,0.734021 0.28371,0.173847 0.59881,0.260771 0.9465,0.260771 z" />
  <path
     style="fill:#000000;stroke-width:1"
     id="path36"
     d="m 124.84424,30.451787 c 0,0.08366 -0.029,0.154531 -0.0869,0.21248 -0.0507,0.05155 -0.11831,0.07727 -0.20282,0.07727 -0.0833,0 -0.15453,-0.02572 -0.21248,-0.07727 -0.0507,-0.05795 -0.0773,-0.128816 -0.0773,-0.21248 V 26.00903 c 0,-0.08366 0.0266,-0.151271 0.0773,-0.202822 0.058,-0.05795 0.12918,-0.08692 0.21248,-0.08692 0.0845,0 0.15211,0.02897 0.20282,0.08692 0.058,0.05155 0.0869,0.119158 0.0869,0.202822 z m -0.28974,-5.3796 c -0.12797,0 -0.22818,-0.02897 -0.29941,-0.08692 -0.07,-0.06435 -0.10624,-0.154531 -0.10624,-0.270429 v -0.09658 c 0,-0.115898 0.0362,-0.202821 0.10624,-0.26077 0.0773,-0.06435 0.1811,-0.09658 0.30907,-0.09658 0.25835,0 0.38632,0.119158 0.38632,0.357352 v 0.09658 c 0,0.115898 -0.035,0.206081 -0.10624,0.270429 -0.064,0.05795 -0.16056,0.08692 -0.28974,0.08692 z" />
  <path
     style="fill:#000000;stroke-width:1"
     id="path38"
     d="m 128.48417,25.69031 c 0.30302,0 0.58311,0.03537 0.84026,0.10624 0.26439,0.06435 0.47325,0.154531 0.62778,0.270429 0.16177,0.115898 0.24145,0.241454 0.24145,0.376668 0,0.07087 -0.0254,0.135215 -0.0773,0.193164 -0.0447,0.05795 -0.10262,0.08692 -0.17385,0.08692 -0.064,0 -0.11831,-0.01292 -0.16419,-0.03863 -0.0386,-0.02571 -0.0833,-0.06435 -0.13521,-0.115898 -0.0833,-0.08366 -0.16419,-0.144872 -0.24146,-0.183505 -0.0966,-0.04503 -0.22455,-0.08052 -0.38633,-0.10624 -0.15453,-0.03223 -0.32113,-0.04829 -0.50222,-0.04829 -0.35373,0 -0.67849,0.09018 -0.97548,0.270429 -0.28974,0.180246 -0.51791,0.42496 -0.68573,0.734021 -0.1666,0.309061 -0.25111,0.650357 -0.25111,1.023766 0,0.386327 0.0809,0.734021 0.24146,1.043082 0.16177,0.309062 0.38391,0.553775 0.66641,0.734021 0.28975,0.173847 0.61812,0.260771 0.98513,0.260771 0.2318,0 0.4153,-0.01932 0.55052,-0.05795 0.14246,-0.03863 0.28009,-0.09332 0.4153,-0.164189 0.0459,-0.02571 0.12314,-0.08366 0.2318,-0.173847 0.0519,-0.04503 0.0966,-0.07727 0.13521,-0.09658 0.0386,-0.02572 0.0809,-0.03863 0.12556,-0.03863 0.0773,0 0.13883,0.02571 0.1835,0.07727 0.0459,0.04503 0.0676,0.106239 0.0676,0.183505 0,0.109499 -0.0773,0.228536 -0.2318,0.357352 -0.15453,0.122297 -0.36701,0.228536 -0.63744,0.31872 -0.27042,0.09018 -0.56983,0.135214 -0.89821,0.135214 -0.46962,0 -0.88855,-0.1095 -1.25556,-0.328378 -0.36701,-0.225397 -0.65313,-0.534459 -0.85957,-0.927184 -0.1992,-0.392725 -0.29941,-0.833862 -0.29941,-1.323169 0,-0.469991 0.10383,-0.89821 0.30906,-1.284537 0.20645,-0.392725 0.49619,-0.705046 0.86924,-0.936842 0.37425,-0.231796 0.80163,-0.347694 1.28454,-0.347694 z" />
  <path
     style="fill:#000000;stroke-width:1"
     id="path40"
     d="m 134.40221,30.200675 c 0.0833,0 0.15091,0.02571 0.20282,0.07726 0.0507,0.05155 0.0773,0.115898 0.0773,0.193164 0,0.07726 -0.0266,0.141612 -0.0773,0.193163 -0.0519,0.05155 -0.11952,0.07727 -0.20282,0.07727 h -3.13891 c -0.0845,0 -0.15211,-0.02897 -0.20282,-0.08692 -0.0519,-0.06435 -0.0773,-0.128816 -0.0773,-0.193164 0,-0.08366 0.029,-0.15779 0.0869,-0.222137 l 2.85882,-3.95985 h -2.4242 c -0.0773,0 -0.14487,-0.02571 -0.20282,-0.07727 -0.0519,-0.05155 -0.0773,-0.115898 -0.0773,-0.193163 0,-0.07727 0.0254,-0.141613 0.0773,-0.193164 0.058,-0.05155 0.12555,-0.07727 0.20282,-0.07727 h 2.96506 c 0.0773,0 0.14125,0.02897 0.19316,0.08692 0.0507,0.05795 0.0773,0.125557 0.0773,0.202822 0,0.07087 -0.0266,0.141613 -0.0773,0.21248 l -2.86848,3.959849 z" />
  <path
     style="fill:#000000;stroke-width:1"
     id="path42"
     d="m 138.26065,25.69031 c 0.5988,0 1.03584,0.177107 1.31351,0.531199 0.2825,0.347694 0.42496,0.811286 0.42496,1.390777 v 2.839501 c 0,0.08366 -0.029,0.154531 -0.0869,0.21248 -0.0579,0.05155 -0.12555,0.07727 -0.20282,0.07727 -0.0845,0 -0.15453,-0.02572 -0.21248,-0.07727 -0.0519,-0.05795 -0.0773,-0.128816 -0.0773,-0.21248 V 27.64126 c 0,-0.418561 -0.10624,-0.756597 -0.31872,-1.014108 -0.20645,-0.26403 -0.52879,-0.395985 -0.96582,-0.395985 -0.27767,0 -0.54086,0.06435 -0.79197,0.193164 -0.24508,0.128816 -0.44428,0.302663 -0.59881,0.521541 -0.15453,0.21248 -0.23179,0.444276 -0.23179,0.695388 v 2.810527 c 0,0.08366 -0.029,0.154531 -0.0869,0.21248 -0.0519,0.05155 -0.11952,0.07727 -0.20282,0.07727 -0.0845,0 -0.15453,-0.02572 -0.21248,-0.07727 -0.0519,-0.05795 -0.0773,-0.128816 -0.0773,-0.21248 v -4.326859 c 0,-0.08366 0.0254,-0.151271 0.0773,-0.202822 0.058,-0.05795 0.12797,-0.08692 0.21248,-0.08692 0.0833,0 0.15091,0.02897 0.20282,0.08692 0.058,0.05155 0.0869,0.119158 0.0869,0.202822 v 0.531199 c 0.17385,-0.276827 0.42134,-0.505485 0.74368,-0.68573 0.32837,-0.186765 0.66279,-0.280087 1.00445,-0.280087 z" />
  <path
     style="fill:#000000;stroke-width:1"
     id="path44"
     d="m 145.14934,25.719285 c 0.0833,0 0.1509,0.02897 0.20282,0.08692 0.058,0.05155 0.0869,0.119158 0.0869,0.202822 v 4.259252 c 0,0.508623 -0.1002,0.943241 -0.2994,1.303853 -0.20041,0.360612 -0.47687,0.634179 -0.83061,0.820944 -0.35493,0.186765 -0.75333,0.280087 -1.19761,0.280087 -0.27043,0 -0.52516,-0.02897 -0.76299,-0.08692 -0.2318,-0.05795 -0.42496,-0.135215 -0.57949,-0.231797 -0.13522,-0.08366 -0.20283,-0.177106 -0.20283,-0.280086 0,-0.01292 0.006,-0.04503 0.0193,-0.09658 0.0193,-0.06435 0.0507,-0.112638 0.0966,-0.144873 0.0447,-0.03223 0.093,-0.04829 0.14488,-0.04829 0.0386,0 0.0773,0.0097 0.11589,0.02897 0.41168,0.225398 0.80405,0.338036 1.1783,0.338036 0.53361,0 0.95616,-0.167449 1.26522,-0.502225 0.3151,-0.334776 0.47325,-0.79197 0.47325,-1.37146 v -0.338036 c -0.16177,0.270429 -0.39357,0.489307 -0.69539,0.656756 -0.30302,0.160929 -0.6314,0.241454 -0.98513,0.241454 -0.56017,0 -0.98513,-0.167449 -1.27488,-0.502225 -0.28974,-0.334776 -0.43462,-0.78871 -0.43462,-1.361802 v -2.965057 c 0,-0.08366 0.0254,-0.151271 0.0773,-0.202822 0.0579,-0.05795 0.12797,-0.08692 0.21248,-0.08692 0.0833,0 0.15091,0.02897 0.20282,0.08692 0.0579,0.05155 0.0869,0.119158 0.0869,0.202822 v 2.878134 c 0,0.463592 0.099,0.814546 0.29941,1.05274 0.20523,0.238195 0.52395,0.357353 0.95616,0.357353 0.26318,0 0.51429,-0.06435 0.75333,-0.193164 0.24387,-0.135214 0.43703,-0.309061 0.57949,-0.521541 0.14729,-0.218878 0.22214,-0.450674 0.22214,-0.695388 v -2.878134 c 0,-0.08366 0.0254,-0.151271 0.0773,-0.202822 0.0579,-0.05795 0.12797,-0.08692 0.21248,-0.08692 z" />
  <path
     style="fill:#000000"
     id="path46"
     d="m 15.1031,23.82 c 0.1733,0 0.3133,0.06 0.42,0.18 0.12,0.12 0.18,0.26 0.18,0.42 0,0.1733 -0.06,0.3133 -0.18,0.42 -0.1067,0.1067 -0.2467,0.16 -0.42,0.16 H 7.76309 c -0.17334,0 -0.32,-0.0533 -0.44,-0.16 -0.10667,-0.12 -0.16,-0.2667 -0.16,-0.44 V 11.6 c 0,-0.1733 0.05333,-0.3133 0.16,-0.42 0.12,-0.12 0.26666,-0.18 0.44,-0.18 h 7.34001 c 0.1733,0 0.3133,0.06 0.42,0.18 0.12,0.1067 0.18,0.2467 0.18,0.42 0,0.1733 -0.06,0.3133 -0.18,0.42 -0.1067,0.1067 -0.2467,0.16 -0.42,0.16 H 8.42309 v 5.02 h 5.78001 c 0.1733,0 0.3133,0.06 0.42,0.18 0.12,0.1067 0.18,0.2467 0.18,0.42 0,0.1733 -0.06,0.3133 -0.18,0.42 -0.1067,0.1067 -0.2467,0.16 -0.42,0.16 H 8.42309 v 5.44 z" />
  <path
     style="fill:#000000"
     id="path48"
     d="m 28.7503,12.04 c 0.2,0.12 0.3,0.2867 0.3,0.5 0,0.12 -0.0467,0.2533 -0.14,0.4 -0.12,0.1467 -0.2734,0.22 -0.46,0.22 -0.1067,0 -0.2134,-0.0333 -0.32,-0.1 -1.0667,-0.7067 -2.2334,-1.06 -3.5,-1.06 -1.08,0 -2.06,0.2533 -2.94,0.76 -0.8667,0.5067 -1.5534,1.22 -2.06,2.14 -0.4934,0.9067 -0.74,1.94 -0.74,3.1 0,1.1867 0.2533,2.24 0.76,3.16 0.5066,0.9067 1.1933,1.6133 2.06,2.12 0.88,0.4933 1.8533,0.74 2.92,0.74 1.2666,0 2.4266,-0.3467 3.48,-1.04 0.1066,-0.0667 0.22,-0.1 0.34,-0.1 0.1866,0 0.34,0.08 0.46,0.24 0.0933,0.1067 0.14,0.2333 0.14,0.38 0,0.2133 -0.0934,0.3733 -0.28,0.48 -0.52,0.3467 -1.16,0.64 -1.92,0.88 -0.76,0.2267 -1.5,0.34 -2.22,0.34 -1.2667,0 -2.44,-0.3 -3.52,-0.9 -1.0667,-0.6133 -1.92,-1.4667 -2.56,-2.56 -0.6267,-1.0933 -0.94,-2.34 -0.94,-3.74 0,-1.3467 0.3133,-2.5667 0.94,-3.66 0.6266,-1.1067 1.4733,-1.9667 2.54,-2.58 1.0666,-0.6267 2.2466,-0.94 3.54,-0.94 0.7466,0 1.4733,0.1067 2.18,0.32 0.72,0.2133 1.3666,0.5133 1.94,0.9 z" />
  <path
     style="fill:#000000;stroke-width:1"
     id="path50"
     d="m 48.25978,16.399847 c 0.160138,0 0.289334,0.05542 0.387934,0.166258 0.110838,0.110838 0.166257,0.240149 0.166257,0.387934 0,0.160138 -0.05542,0.289449 -0.166257,0.387933 -0.0986,0.09849 -0.227796,0.147785 -0.387934,0.147785 h -6.779607 c -0.160138,0 -0.295569,-0.0493 -0.406407,-0.147785 -0.0986,-0.110838 -0.147784,-0.246268 -0.147784,-0.406406 V 5.1128289 c 0,-0.1601036 0.04918,-0.2894149 0.147784,-0.3879339 0.110838,-0.1108383 0.246269,-0.1662574 0.406407,-0.1662574 h 6.779607 c 0.160138,0 0.289334,0.055419 0.387934,0.1662574 0.110838,0.098519 0.166257,0.2278303 0.166257,0.3879339 0,0.1601036 -0.05542,0.2894033 -0.166257,0.3879339 -0.0986,0.098519 -0.227796,0.1477844 -0.387934,0.1477844 h -6.169997 v 4.6367348 h 5.33871 c 0.160138,0 0.289334,0.05542 0.387934,0.166257 0.110838,0.09852 0.166257,0.227784 0.166257,0.387922 0,0.160138 -0.05542,0.28945 -0.166257,0.387934 -0.0986,0.09848 -0.227796,0.147784 -0.387934,0.147784 h -5.33871 v 5.024668 z" />
  <path
     style="fill:#000000;stroke-width:1"
     id="path52"
     d="m 61.770155,4.5586376 c 0.147785,0 0.270977,0.055419 0.369461,0.1662574 0.110839,0.098519 0.166258,0.2278303 0.166258,0.3879339 V 16.935566 c 0,0.160138 -0.05542,0.295568 -0.166258,0.406406 -0.110838,0.09849 -0.246268,0.147785 -0.406407,0.147785 -0.172376,0 -0.314041,-0.0493 -0.42488,-0.147785 -0.110838,-0.110838 -0.166257,-0.246268 -0.166257,-0.406406 V 6.7754028 l -4.341165,6.5763922 c -0.123077,0.160138 -0.264742,0.23403 -0.42488,0.221677 h -0.03695 c -0.147785,0 -0.283215,-0.07389 -0.406407,-0.221677 L 51.591509,6.7384567 V 16.935566 c 0,0.160138 -0.05542,0.295568 -0.166258,0.406406 -0.09848,0.09849 -0.227795,0.147785 -0.387934,0.147785 -0.160022,0 -0.289334,-0.0493 -0.387934,-0.147785 -0.09848,-0.110838 -0.147784,-0.246268 -0.147784,-0.406406 V 5.1128289 c 0,-0.1477843 0.0493,-0.2770956 0.147784,-0.3879339 0.110839,-0.1108383 0.246385,-0.1662574 0.406407,-0.1662574 0.08625,0 0.178612,0.024627 0.277096,0.073892 0.0986,0.036946 0.172492,0.092365 0.221677,0.1662574 l 4.839937,7.259895 4.876883,-7.259895 c 0.135546,-0.1847305 0.301804,-0.264788 0.498772,-0.2401494 z" />
  <path
     style="fill:#000000;stroke-width:1"
     id="path54"
     d="m 66.021726,16.917092 c -0.01235,0.160139 -0.07389,0.295569 -0.18473,0.406407 -0.110838,0.110839 -0.246269,0.166258 -0.406407,0.166258 -0.172377,0 -0.314042,-0.0493 -0.42488,-0.147785 -0.09848,-0.110838 -0.147784,-0.252503 -0.147784,-0.42488 V 5.1313019 c 0,-0.1724227 0.05542,-0.3078879 0.166257,-0.4064069 0.110838,-0.1108383 0.252503,-0.1662574 0.42488,-0.1662574 0.160138,0 0.295569,0.055419 0.406407,0.1662574 0.110838,0.1108383 0.166257,0.2463034 0.166257,0.4064069 z" />
  <path
     style="fill:#000000;stroke-width:1"
     id="path56"
     d="m 75.701601,16.399847 c 0.160138,0 0.289449,0.0493 0.387934,0.147785 0.110838,0.09848 0.166257,0.227795 0.166257,0.387934 0,0.160138 -0.05542,0.295568 -0.166257,0.406406 -0.09849,0.09849 -0.227796,0.147785 -0.387934,0.147785 h -6.594876 c -0.160139,0 -0.295569,-0.0493 -0.406407,-0.147785 -0.09849,-0.110838 -0.147785,-0.246268 -0.147785,-0.406406 V 5.1128289 c 0,-0.1601036 0.05542,-0.2894149 0.166258,-0.3879339 0.110838,-0.1108383 0.252503,-0.1662574 0.42488,-0.1662574 0.160138,0 0.295568,0.055419 0.406407,0.1662574 0.110838,0.098519 0.166257,0.2278303 0.166257,0.3879339 V 16.399847 Z" />
  <path
     style="fill:#000000;stroke-width:1"
     id="path58"
     d="m 78.624498,16.917092 c -0.01224,0.160139 -0.07389,0.295569 -0.18473,0.406407 -0.110838,0.110839 -0.246269,0.166258 -0.406407,0.166258 -0.172377,0 -0.314042,-0.0493 -0.42488,-0.147785 -0.09849,-0.110838 -0.147784,-0.252503 -0.147784,-0.42488 V 5.1313019 c 0,-0.1724227 0.05542,-0.3078879 0.166257,-0.4064069 0.110838,-0.1108383 0.252503,-0.1662574 0.42488,-0.1662574 0.160138,0 0.295569,0.055419 0.406407,0.1662574 0.110838,0.1108383 0.166257,0.2463034 0.166257,0.4064069 z" />
  <path
     style="fill:#000000;stroke-width:1"
     id="path60"
     d="m 90.798234,16.750835 c 0.02471,0.09848 0.03695,0.172377 0.03695,0.221677 0,0.160138 -0.05542,0.289449 -0.166258,0.387933 -0.110838,0.09849 -0.240149,0.147785 -0.387933,0.147785 -0.123077,0 -0.233915,-0.03083 -0.332515,-0.09237 -0.08613,-0.07389 -0.153904,-0.166258 -0.203204,-0.277096 l -1.385478,-3.380567 h -6.003739 l -1.367005,3.380567 c -0.09849,0.246269 -0.264742,0.369461 -0.498772,0.369461 -0.172377,0 -0.301688,-0.04307 -0.387934,-0.129311 -0.08613,-0.08625 -0.135431,-0.203204 -0.147785,-0.350988 v -0.05542 c 0,-0.07389 0.0062,-0.129312 0.01847,-0.166258 L 84.849914,4.8726793 c 0.0986,-0.2463034 0.28333,-0.3694608 0.554191,-0.3694608 0.123192,0 0.227911,0.036946 0.314042,0.1108382 0.0986,0.061573 0.172492,0.1477844 0.221676,0.2586226 z m -2.881795,-4.082542 -2.586226,-6.3177702 -2.54928,6.3177702 z" />
  <path
     style="fill:#000000;stroke-width:1"
     id="path62"
     d="m 105.75955,5.5192359 c 0.18473,0.1108382 0.2771,0.2647764 0.2771,0.461826 0,0.1108383 -0.0431,0.2339842 -0.12932,0.3694609 -0.11083,0.1354651 -0.2525,0.2032035 -0.42488,0.2032035 -0.0985,0 -0.19708,-0.030792 -0.29556,-0.092365 C 104.2017,5.8086394 103.12402,5.48229 101.9541,5.48229 c -0.99754,0 -1.90272,0.2339841 -2.715529,0.7019756 -0.80046,0.4679799 -1.434782,1.1268556 -1.902727,1.9766159 -0.455707,0.837441 -0.683503,1.791885 -0.683503,2.8633105 0,1.096028 0.23403,2.068981 0.701976,2.918741 0.467945,0.837406 1.102264,1.490197 1.902724,1.958142 0.812809,0.455707 1.711869,0.683503 2.697059,0.683503 1.16992,0 2.24136,-0.320161 3.21431,-0.960599 0.0985,-0.06154 0.20321,-0.09236 0.31404,-0.09236 0.17238,0 0.31405,0.07389 0.42488,0.221677 0.0863,0.09848 0.12932,0.215557 0.12932,0.350988 0,0.197084 -0.0863,0.344868 -0.25863,0.443353 -0.4803,0.320161 -1.07143,0.591137 -1.77341,0.812813 -0.70197,0.209323 -1.38548,0.314042 -2.05051,0.314042 -1.16992,0 -2.253709,-0.277095 -3.251249,-0.831287 -0.985193,-0.566545 -1.773414,-1.354651 -2.364552,-2.364549 -0.578783,-1.009898 -0.868233,-2.161346 -0.868233,-3.454459 0,-1.2438485 0.28945,-2.3707045 0.868233,-3.3805565 0.578784,-1.0221822 1.360886,-1.8165231 2.346072,-2.3830221 0.9852,-0.5788297 2.075099,-0.868233 3.269729,-0.868233 0.68963,0 1.36089,0.098519 2.01357,0.2955687 0.66502,0.1970381 1.26228,0.4741338 1.79188,0.831287 z" />
  <path
     style="fill:#000000;stroke-width:1"
     id="path64"
     d="m 122.42801,4.5216915 c 0.17203,0 0.31404,0.049254 0.42488,0.1477844 0.11084,0.098519 0.16626,0.2339841 0.16626,0.4064069 l -0.037,0.2401496 -4.08254,11.8227366 c -0.037,0.110838 -0.10507,0.197084 -0.20321,0.258623 -0.0866,0.06154 -0.18473,0.09237 -0.29557,0.09237 -0.28286,0 -0.46759,-0.116958 -0.55419,-0.350988 l -3.19583,-7.8879785 -3.19584,7.8879785 c -0.11084,0.23403 -0.29557,0.350988 -0.55419,0.350988 -0.11084,0 -0.2159,-0.03083 -0.31404,-0.09237 -0.0866,-0.06154 -0.14201,-0.147785 -0.16626,-0.258623 L 106.3381,5.3160324 c -0.0369,-0.073892 -0.0554,-0.1477844 -0.0554,-0.2216765 0,-0.1724228 0.0617,-0.3078879 0.18473,-0.406407 0.13555,-0.1108383 0.2771,-0.1662574 0.42488,-0.1662574 0.1232,0 0.23403,0.030781 0.33252,0.092365 0.098,0.061573 0.16614,0.1477844 0.20309,0.2586226 l 3.62069,10.5665699 3.10347,-7.7401945 c 0.11084,-0.2463145 0.28287,-0.3633066 0.51725,-0.3509874 0.12354,-0.012319 0.22745,0.018473 0.31404,0.092365 0.0981,0.061573 0.17203,0.1477844 0.22168,0.2586224 l 3.085,7.7401945 3.58377,-10.5665699 c 0.0981,-0.2339957 0.28287,-0.3509878 0.55419,-0.3509876 z" />
  <path
     style="fill:#000000;stroke-width:1"
     id="path66"
     d="m 135.81981,11.024192 c 0,1.26852 -0.2644,2.407614 -0.79434,3.417513 -0.52995,1.009898 -1.26194,1.804239 -2.19829,2.383022 -0.93636,0.566545 -2.00086,0.84976 -3.19584,0.84976 -1.19497,0 -2.25948,-0.283215 -3.19584,-0.84976 -0.93635,-0.578783 -1.66834,-1.373124 -2.19829,-2.383022 -0.52994,-1.009899 -0.79434,-2.148993 -0.79434,-3.417513 0,-1.2807945 0.2644,-2.4261235 0.79434,-3.4359755 0.52995,-1.0098634 1.26194,-1.7980504 2.19829,-2.3645493 0.93636,-0.5665105 2.00087,-0.84976 3.19584,-0.84976 1.19498,0 2.25948,0.2832495 3.19584,0.84976 0.93635,0.5664989 1.66834,1.3546859 2.19829,2.3645493 0.52994,1.009852 0.79434,2.155181 0.79434,3.4359755 z m -1.18227,0 c 0,-1.0714255 -0.21591,-2.0258705 -0.64656,-2.8633105 -0.41911,-0.8497605 -1.01025,-1.5086362 -1.77341,-1.9766161 -0.75163,-0.4679915 -1.61293,-0.7019756 -2.58623,-0.7019756 -0.9733,0 -1.84153,0.2339841 -2.6047,0.7019756 -0.75162,0.4679799 -1.34276,1.1268556 -1.77341,1.9766161 -0.41911,0.83744 -0.62808,1.791885 -0.62808,2.8633105 0,1.071436 0.20897,2.032034 0.62808,2.881794 0.43065,0.837407 1.02179,1.490198 1.77341,1.958143 0.76317,0.467945 1.6314,0.701976 2.6047,0.701976 0.9733,0 1.8346,-0.234031 2.58623,-0.701976 0.76316,-0.467945 1.3543,-1.120736 1.77341,-1.958143 0.43065,-0.84976 0.64656,-1.810358 0.64656,-2.881794 z" />
  <path
     style="fill:#000000;stroke-width:1"
     id="path68"
     d="m 140.30876,17.674487 c -0.76432,0 -1.4536,-0.209322 -2.06898,-0.628083 -0.61654,-0.430999 -1.08991,-1.003664 -1.42243,-1.717993 -0.0623,-0.09849 -0.0924,-0.197085 -0.0924,-0.295569 0,-0.147784 0.0554,-0.270976 0.16626,-0.369461 0.12238,-0.09848 0.25169,-0.147784 0.38793,-0.147784 0.19628,0 0.36946,0.104719 0.51725,0.314042 0.23322,0.529599 0.57266,0.954479 1.01601,1.27464 0.44336,0.307922 0.94213,0.461826 1.49632,0.461826 0.84976,0 1.53903,-0.258623 2.06898,-0.775868 0.52879,-0.529599 0.79434,-1.219221 0.79434,-2.068981 V 5.1128289 c 0,-0.1601036 0.0554,-0.2894149 0.16626,-0.3879339 0.11084,-0.1108383 0.25169,-0.1662574 0.42488,-0.1662574 0.17203,0 0.30711,0.055419 0.40641,0.1662574 0.11083,0.098519 0.16625,0.2278303 0.16625,0.3879339 v 8.6084271 c 0,0.751276 -0.17318,1.428544 -0.51724,2.032035 -0.34522,0.603491 -0.82552,1.077555 -1.4409,1.422424 -0.60384,0.332515 -1.29311,0.498772 -2.06898,0.498772 z" />
  <path
     style="fill:#000000;stroke-width:1"
     id="path70"
     d="m 152.1546,4.5586376 c 1.18227,0 2.17404,0.2955687 2.97416,0.8867061 0.81281,0.5788182 1.41665,1.3608398 1.81036,2.3460768 0.4064,0.972906 0.60961,2.050508 0.60961,3.2327715 0,1.219221 -0.20321,2.315249 -0.60961,3.288201 -0.39371,0.972952 -0.99755,1.74882 -1.81036,2.327604 -0.80012,0.566545 -1.79189,0.84976 -2.97416,0.84976 h -4.71063 c -0.16048,0 -0.29557,-0.0493 -0.4064,-0.147785 -0.0981,-0.110838 -0.14779,-0.246268 -0.14779,-0.406406 V 5.1128289 c 0,-0.1601036 0.0496,-0.2894149 0.14779,-0.3879339 0.11083,-0.1108383 0.24592,-0.1662574 0.4064,-0.1662574 z m -0.18473,11.8412094 c 1.47784,0 2.58045,-0.492653 3.30667,-1.477843 0.72622,-0.997545 1.08991,-2.296777 1.08991,-3.897812 0,-0.997533 -0.15355,-1.8965585 -0.46182,-2.6970535 -0.30827,-0.812814 -0.79434,-1.4593705 -1.45937,-1.9396696 -0.65233,-0.4926184 -1.47785,-0.7389217 -2.47539,-0.7389217 h -3.91629 V 16.399847 Z" />
  <path
     style="fill:#000000;stroke-width:1"
     id="path72"
     d="m 167.65579,16.436793 c 0.15933,0 0.28864,0.05542 0.38793,0.166258 0.11084,0.09848 0.16626,0.215557 0.16626,0.350988 0,0.160138 -0.0554,0.289449 -0.16626,0.387933 -0.0993,0.09849 -0.2286,0.147785 -0.38793,0.147785 h -8.84859 c -0.17318,0 -0.31404,-0.05542 -0.42488,-0.166258 -0.0993,-0.123192 -0.14778,-0.258622 -0.14778,-0.406407 0,-0.110838 0.0369,-0.221676 0.11084,-0.332514 l 8.31287,-10.9729769 h -7.38922 c -0.16049,0 -0.29557,-0.049265 -0.40641,-0.1477844 -0.0993,-0.098531 -0.14778,-0.2278419 -0.14778,-0.3879339 0,-0.1477843 0.0485,-0.2709418 0.14778,-0.3694608 0.11084,-0.098531 0.24592,-0.1477844 0.40641,-0.1477844 h 8.40523 c 0.18473,0 0.33252,0.055419 0.44336,0.1662574 0.11084,0.1108383 0.16625,0.2401496 0.16625,0.3879339 0,0.1108383 -0.0369,0.2216765 -0.11083,0.3325148 l -8.2944,10.9914493 z" />
  <path
     style="fill:#000000;stroke-width:1"
     id="path74"
     d="m 171.10217,16.917092 c -0.0127,0.160139 -0.0751,0.295569 -0.18589,0.406407 -0.11084,0.110839 -0.24592,0.166258 -0.40525,0.166258 -0.17318,0 -0.31404,-0.0493 -0.42488,-0.147785 -0.0993,-0.110838 -0.14778,-0.252503 -0.14778,-0.42488 V 5.1313019 c 0,-0.1724227 0.0554,-0.3078879 0.16625,-0.4064069 0.11084,-0.1108383 0.2517,-0.1662574 0.42488,-0.1662574 0.15933,0 0.29557,0.055419 0.40641,0.1662574 0.11084,0.1108383 0.16626,0.2463034 0.16626,0.4064069 z" />
  <path
     style="fill:#000000;stroke-width:1"
     id="path76"
     d="m 183.09117,4.5586376 c 0.15933,0 0.28287,0.049254 0.36946,0.1477844 0.0981,0.098519 0.14779,0.2216765 0.14779,0.3694608 V 16.898619 c 0,0.184731 -0.0554,0.332515 -0.16626,0.443353 -0.11084,0.09849 -0.24708,0.147785 -0.40641,0.147785 -0.0866,0 -0.17318,-0.01847 -0.25862,-0.05542 -0.0739,-0.03695 -0.13624,-0.08001 -0.18473,-0.129312 L 174.66747,6.6276184 V 16.990985 c 0,0.13543 -0.0554,0.252503 -0.16626,0.350987 -0.0993,0.09849 -0.21591,0.147785 -0.35099,0.147785 -0.14778,0 -0.27132,-0.0493 -0.36946,-0.147785 -0.0993,-0.09848 -0.14779,-0.215557 -0.14779,-0.350987 V 5.1128289 c 0,-0.1724112 0.0485,-0.3078879 0.14779,-0.4064069 0.11084,-0.098531 0.24015,-0.1477844 0.38793,-0.1477844 0.19628,0 0.34406,0.067727 0.44336,0.2032035 l 7.96188,10.7328269 V 5.0758828 c 0,-0.1477843 0.0485,-0.2709418 0.14778,-0.3694608 0.0981,-0.098531 0.22168,-0.1477844 0.36946,-0.1477844 z m -4.39658,-0.84976 c -0.11084,0 -0.19743,-0.030792 -0.25862,-0.092365 -0.0624,-0.061584 -0.0924,-0.1416305 -0.0924,-0.2401496 0,-0.098531 0.0612,-0.2093688 0.18473,-0.3325147 l 1.6441,-1.27464 c 0.15933,-0.1354767 0.33829,-0.2032035 0.53572,-0.2032035 0.15933,0 0.28864,0.055419 0.38793,0.1662574 0.11084,0.098519 0.16626,0.2278304 0.16626,0.3879339 0,0.2463034 -0.11776,0.4371877 -0.35099,0.5726643 l -1.81035,0.9051792 c -0.17319,0.073892 -0.30827,0.1108382 -0.40641,0.1108382 z" />
  <path
     style="fill:#000000;stroke-width:1"
     id="path78"
     d="m 189.63987,17.674487 c -0.88671,0 -1.67528,-0.147784 -2.36455,-0.443353 -0.67773,-0.295568 -1.33583,-0.757395 -1.97662,-1.385478 -0.14778,-0.123192 -0.22167,-0.270976 -0.22167,-0.443353 0,-0.147784 0.0554,-0.283215 0.16625,-0.406407 0.12354,-0.123192 0.25863,-0.18473 0.40641,-0.18473 0.14778,0 0.28287,0.06154 0.40641,0.18473 0.96059,1.059083 2.16134,1.588682 3.60224,1.588682 0.88671,0 1.61985,-0.209323 2.19829,-0.628084 0.59114,-0.418761 0.88671,-0.966717 0.88671,-1.644101 0,-0.529599 -0.14779,-0.966717 -0.44336,-1.311586 -0.28286,-0.357107 -0.65925,-0.646556 -1.12685,-0.868233 -0.4676,-0.221676 -1.06566,-0.449472 -1.79189,-0.683502 -0.78856,-0.234031 -1.45359,-0.492653 -1.99508,-0.775868 -0.52995,-0.28325 -0.9606,-0.658864 -1.29312,-1.1268445 -0.33251,-0.480299 -0.49877,-1.083756 -0.49877,-1.810358 0,-0.6527224 0.17203,-1.2315405 0.51725,-1.7364665 0.35676,-0.5049376 0.84976,-0.8990253 1.47784,-1.1822748 0.64078,-0.2955687 1.37278,-0.443353 2.19829,-0.443353 0.75162,0 1.4536,0.1293113 2.10593,0.3879339 0.66503,0.2463034 1.19497,0.603445 1.58868,1.0714365 0.18473,0.2093573 0.2771,0.3879339 0.2771,0.5357182 0,0.1354652 -0.0612,0.2647765 -0.18474,0.3879339 -0.12353,0.1108383 -0.25862,0.1662574 -0.4064,0.1662574 -0.12354,0 -0.22745,-0.043111 -0.31404,-0.1293113 -0.33252,-0.3940993 -0.77587,-0.7142948 -1.33006,-0.9605982 -0.55419,-0.246315 -1.13263,-0.3694609 -1.73647,-0.3694609 -0.89941,0 -1.6314,0.2032035 -2.19829,0.6096104 -0.56689,0.3940878 -0.84976,0.9359599 -0.84976,1.6256274 0,0.714284 0.27132,1.262321 0.81281,1.644101 0.54149,0.381769 1.31736,0.7327575 2.32761,1.0529645 0.874,0.258611 1.58868,0.523353 2.14287,0.794329 0.55419,0.270977 1.00332,0.65891 1.34853,1.163802 0.35676,0.492653 0.53572,1.145328 0.53572,1.958142 0,0.628084 -0.18473,1.200748 -0.55419,1.717993 -0.35676,0.504892 -0.86246,0.90518 -1.51479,1.200748 -0.64078,0.295569 -1.37278,0.443353 -2.19829,0.443353 z" />
  <path
     style="fill:#000000;stroke-width:1"
     id="path80"
     d="m 205.33387,16.584578 c 0.0854,0.123192 0.12931,0.252503 0.12931,0.387934 0,0.18473 -0.0681,0.332514 -0.2032,0.443353 -0.12354,0.09848 -0.26555,0.147784 -0.42488,0.147784 -0.16049,0 -0.29557,-0.06777 -0.40641,-0.203204 l -5.15398,-6.484038 -2.51233,2.36455 v 3.676135 c -0.0127,0.172377 -0.0739,0.314042 -0.18473,0.42488 -0.11084,0.09849 -0.24708,0.147785 -0.40756,0.147785 -0.17203,0 -0.31289,-0.0493 -0.42373,-0.147785 -0.0993,-0.110838 -0.14894,-0.252503 -0.14894,-0.42488 V 5.1313019 c 0,-0.1724227 0.0566,-0.3078879 0.16742,-0.4064069 0.11083,-0.1108383 0.25169,-0.1662574 0.42488,-0.1662574 0.17203,0 0.30711,0.055419 0.4064,0.1662574 0.11084,0.098519 0.16626,0.2339842 0.16626,0.4064069 v 6.7057041 l 7.46311,-7.0566919 c 0.11084,-0.1231574 0.24592,-0.1847304 0.40641,-0.1847304 0.14778,0 0.27016,0.055419 0.36946,0.1662574 0.11083,0.1108382 0.16625,0.2339957 0.16625,0.3694608 0,0.1477844 -0.0554,0.2770957 -0.16625,0.387934 l -4.83994,4.5258961 z" />
  <path
     style="fill:#000000;stroke-width:1"
     id="path82"
     d="m 216.78254,16.750835 c 0.0254,0.09848 0.037,0.172377 0.037,0.221677 0,0.160138 -0.0554,0.289449 -0.16626,0.387933 -0.11084,0.09849 -0.24015,0.147785 -0.38794,0.147785 -0.12238,0 -0.23322,-0.03083 -0.33251,-0.09237 -0.0854,-0.07389 -0.15356,-0.166258 -0.2032,-0.277096 l -1.38548,-3.380567 h -6.00374 l -1.36701,3.380567 c -0.0981,0.246269 -0.26439,0.369461 -0.49877,0.369461 -0.17203,0 -0.30134,-0.04307 -0.38793,-0.129311 -0.0854,-0.08625 -0.13509,-0.203204 -0.14779,-0.350988 v -0.05542 c 0,-0.07389 0.007,-0.129312 0.0185,-0.166258 l 4.87688,-11.9335747 c 0.0993,-0.2463034 0.28402,-0.3694608 0.55419,-0.3694608 0.12354,0 0.22861,0.036946 0.31404,0.1108382 0.0993,0.061573 0.17319,0.1477844 0.22168,0.2586226 z m -2.88179,-4.082542 -2.58623,-6.3177702 -2.54928,6.3177702 z" />
  <path
     style="stroke:#000000;stroke-width:0.75"
     id="path84"
     d="M 7,0.375 H 34.625 V 28 c 0,3.6589 -2.9661,6.625 -6.625,6.625 H 0.375 V 7 C 0.375,3.34111 3.34111,0.375 7,0.375 Z" />
</svg>
