<?xml version="1.0" encoding="UTF-8" standalone="no"?>
<svg
   xmlns:dc="http://purl.org/dc/elements/1.1/"
   xmlns:cc="http://creativecommons.org/ns#"
   xmlns:rdf="http://www.w3.org/1999/02/22-rdf-syntax-ns#"
   xmlns:svg="http://www.w3.org/2000/svg"
   xmlns="http://www.w3.org/2000/svg"
   xmlns:sodipodi="http://sodipodi.sourceforge.net/DTD/sodipodi-0.dtd"
   xmlns:inkscape="http://www.inkscape.org/namespaces/inkscape"
   width="195"
   height="35"
   viewBox="0 0 195 35"
   fill="none"
   version="1.1"
   id="svg86"
   sodipodi:docname="logo — kopia.svg"
   inkscape:version="0.92.4 (5da689c313, 2019-01-14)">
  <metadata
     id="metadata92">
    <rdf:RDF>
      <cc:Work
         rdf:about="">
        <dc:format>image/svg+xml</dc:format>
        <dc:type
           rdf:resource="http://purl.org/dc/dcmitype/StillImage" />
      </cc:Work>
    </rdf:RDF>
  </metadata>
  <defs
     id="defs90" />
  <sodipodi:namedview
     pagecolor="#ffffff"
     bordercolor="#666666"
     borderopacity="1"
     objecttolerance="10"
     gridtolerance="10"
     guidetolerance="10"
     inkscape:pageopacity="0"
     inkscape:pageshadow="2"
     inkscape:window-width="1920"
     inkscape:window-height="1017"
     id="namedview88"
     showgrid="false"
     showguides="false"
     inkscape:zoom="4.1193503"
     inkscape:cx="86.202716"
     inkscape:cy="-21.312725"
     inkscape:window-x="633"
     inkscape:window-y="-8"
     inkscape:window-maximized="1"
     inkscape:current-layer="svg86">
    <sodipodi:guide
       position="42.421739,45.820333"
       orientation="0,1"
       id="guide899"
       inkscape:locked="false" />
  </sodipodi:namedview>
  <path
     d="M134 25.75L195 25.75"
     stroke="black"
     stroke-width="0.5"
     id="path2"
     style="stroke:#2d3130;stroke-opacity:1" />
  <path
     d="M46.8399 25.176C46.9092 25.176 46.9652 25.2 47.0079 25.248C47.0559 25.2907 47.0799 25.3467 47.0799 25.416V27.344C47.0799 27.4347 47.0399 27.5067 46.9599 27.56C46.7199 27.7253 46.4532 27.8533 46.1599 27.944C45.8665 28.0347 45.5679 28.08 45.2639 28.08C44.7199 28.08 44.2292 27.9547 43.7919 27.704C43.3545 27.4533 43.0106 27.1093 42.7599 26.672C42.5092 26.2347 42.3839 25.744 42.3839 25.2C42.3839 24.656 42.5092 24.1653 42.7599 23.728C43.0106 23.2907 43.3545 22.9467 43.7919 22.696C44.2292 22.4453 44.7199 22.32 45.2639 22.32C45.5465 22.32 45.8186 22.3547 46.0799 22.424C46.3465 22.4933 46.5839 22.592 46.7919 22.72C46.8665 22.768 46.9039 22.8347 46.9039 22.92C46.9039 22.9893 46.8799 23.048 46.8319 23.096C46.7892 23.144 46.7385 23.168 46.6799 23.168C46.6265 23.168 46.5786 23.1547 46.5359 23.128C46.1359 22.9093 45.7119 22.8 45.2639 22.8C44.8105 22.8 44.4025 22.904 44.0399 23.112C43.6825 23.32 43.4025 23.608 43.1999 23.976C42.9972 24.3387 42.8959 24.7467 42.8959 25.2C42.8959 25.6533 42.9972 26.064 43.1999 26.432C43.4025 26.7947 43.6825 27.08 44.0399 27.288C44.4025 27.496 44.8105 27.6 45.2639 27.6C45.4932 27.6 45.7225 27.568 45.9519 27.504C46.1865 27.44 46.3945 27.352 46.5759 27.24V25.656H45.3119C45.2425 25.656 45.1839 25.6347 45.1359 25.592C45.0879 25.544 45.0639 25.4853 45.0639 25.416C45.0639 25.3467 45.0879 25.2907 45.1359 25.248C45.1839 25.2 45.2425 25.176 45.3119 25.176H46.8399Z"
     fill="black"
     id="path4"
     style="fill:#2d3130;fill-opacity:1" />
  <path
     d="M51.6238 23.912C51.6931 23.912 51.7491 23.936 51.7918 23.984C51.8398 24.032 51.8638 24.0907 51.8638 24.16V27.76C51.8638 27.8293 51.8398 27.888 51.7918 27.936C51.7491 27.9787 51.6931 28 51.6238 28C51.5544 28 51.4958 27.9787 51.4478 27.936C51.4051 27.888 51.3838 27.8293 51.3838 27.76V27.224C51.2504 27.464 51.0504 27.6667 50.7838 27.832C50.5171 27.9973 50.2264 28.08 49.9118 28.08C49.5544 28.08 49.2318 27.9867 48.9438 27.8C48.6611 27.6133 48.4371 27.3573 48.2718 27.032C48.1118 26.7067 48.0318 26.3413 48.0318 25.936C48.0318 25.5307 48.1144 25.168 48.2798 24.848C48.4451 24.5227 48.6691 24.2693 48.9518 24.088C49.2398 23.9067 49.5571 23.816 49.9038 23.816C50.2238 23.816 50.5171 23.8933 50.7838 24.048C51.0504 24.2027 51.2504 24.4053 51.3838 24.656V24.16C51.3838 24.0907 51.4051 24.032 51.4478 23.984C51.4958 23.936 51.5544 23.912 51.6238 23.912ZM49.9598 27.632C50.2371 27.632 50.4851 27.56 50.7038 27.416C50.9278 27.2667 51.1011 27.064 51.2238 26.808C51.3518 26.5467 51.4158 26.256 51.4158 25.936C51.4158 25.6267 51.3518 25.344 51.2238 25.088C51.1011 24.832 50.9278 24.632 50.7038 24.488C50.4851 24.3387 50.2371 24.264 49.9598 24.264C49.6824 24.264 49.4318 24.336 49.2078 24.48C48.9891 24.624 48.8158 24.824 48.6878 25.08C48.5651 25.3307 48.5038 25.616 48.5038 25.936C48.5038 26.256 48.5651 26.5467 48.6878 26.808C48.8104 27.064 48.9811 27.2667 49.1998 27.416C49.4238 27.56 49.6771 27.632 49.9598 27.632Z"
     fill="black"
     id="path6"
     style="fill:#2d3130;fill-opacity:1" />
  <path
     d="M55.0603 23.816C55.4123 23.816 55.7323 23.9067 56.0203 24.088C56.3083 24.2693 56.5323 24.5227 56.6923 24.848C56.8576 25.168 56.9403 25.5307 56.9403 25.936C56.9403 26.336 56.8576 26.7013 56.6923 27.032C56.5323 27.3573 56.3083 27.6133 56.0203 27.8C55.7376 27.9867 55.4203 28.08 55.0683 28.08C54.7643 28.08 54.4816 28.0053 54.2203 27.856C53.9643 27.7013 53.7563 27.4987 53.5963 27.248V27.776C53.5963 27.8453 53.5723 27.904 53.5243 27.952C53.4816 28 53.4256 28.024 53.3563 28.024C53.2869 28.024 53.2283 28 53.1803 27.952C53.1376 27.904 53.1163 27.8453 53.1163 27.776V22.328C53.1163 22.2587 53.1376 22.2027 53.1803 22.16C53.2283 22.112 53.2869 22.088 53.3563 22.088C53.4256 22.088 53.4816 22.112 53.5243 22.16C53.5723 22.2027 53.5963 22.2587 53.5963 22.328V24.688C53.7403 24.4267 53.9429 24.216 54.2043 24.056C54.4656 23.896 54.7509 23.816 55.0603 23.816ZM55.0203 27.632C55.2976 27.632 55.5456 27.5573 55.7643 27.408C55.9883 27.2587 56.1616 27.056 56.2843 26.8C56.4123 26.5387 56.4763 26.2507 56.4763 25.936C56.4763 25.616 56.4123 25.3307 56.2843 25.08C56.1616 24.824 55.9883 24.624 55.7643 24.48C55.5456 24.336 55.2976 24.264 55.0203 24.264C54.7376 24.264 54.4843 24.336 54.2603 24.48C54.0363 24.6187 53.8629 24.816 53.7403 25.072C53.6176 25.328 53.5563 25.616 53.5563 25.936C53.5563 26.256 53.6176 26.5467 53.7403 26.808C53.8683 27.064 54.0416 27.2667 54.2603 27.416C54.4843 27.56 54.7376 27.632 55.0203 27.632Z"
     fill="black"
     id="path8"
     style="fill:#2d3130;fill-opacity:1" />
  <path
     d="M58.3928 27.76C58.3928 27.8293 58.3688 27.888 58.3208 27.936C58.2781 27.9787 58.2221 28 58.1528 28C58.0834 28 58.0248 27.9787 57.9768 27.936C57.9341 27.888 57.9128 27.8293 57.9128 27.76V24.08C57.9128 24.0107 57.9341 23.9547 57.9768 23.912C58.0248 23.864 58.0834 23.84 58.1528 23.84C58.2221 23.84 58.2781 23.864 58.3208 23.912C58.3688 23.9547 58.3928 24.0107 58.3928 24.08V27.76ZM58.1528 23.304C58.0461 23.304 57.9634 23.28 57.9048 23.232C57.8461 23.1787 57.8168 23.104 57.8168 23.008V22.928C57.8168 22.832 57.8461 22.76 57.9048 22.712C57.9688 22.6587 58.0541 22.632 58.1608 22.632C58.3741 22.632 58.4808 22.7307 58.4808 22.928V23.008C58.4808 23.104 58.4514 23.1787 58.3928 23.232C58.3394 23.28 58.2594 23.304 58.1528 23.304Z"
     fill="black"
     id="path10"
     style="fill:#2d3130;fill-opacity:1" />
  <path
     d="M61.5677 23.816C62.0637 23.816 62.4264 23.9627 62.6557 24.256C62.8904 24.544 63.0077 24.928 63.0077 25.408V27.76C63.0077 27.8293 62.9837 27.888 62.9357 27.936C62.8877 27.9787 62.8317 28 62.7677 28C62.6984 28 62.6397 27.9787 62.5917 27.936C62.549 27.888 62.5277 27.8293 62.5277 27.76V25.432C62.5277 25.0853 62.4397 24.8053 62.2637 24.592C62.093 24.3733 61.8264 24.264 61.4637 24.264C61.2344 24.264 61.0157 24.3173 60.8077 24.424C60.605 24.5307 60.4397 24.6747 60.3117 24.856C60.1837 25.032 60.1197 25.224 60.1197 25.432V27.76C60.1197 27.8293 60.0957 27.888 60.0477 27.936C60.005 27.9787 59.949 28 59.8797 28C59.8104 28 59.7517 27.9787 59.7037 27.936C59.661 27.888 59.6397 27.8293 59.6397 27.76V24.176C59.6397 24.1067 59.661 24.0507 59.7037 24.008C59.7517 23.96 59.8104 23.936 59.8797 23.936C59.949 23.936 60.005 23.96 60.0477 24.008C60.0957 24.0507 60.1197 24.1067 60.1197 24.176V24.616C60.2637 24.3867 60.469 24.1973 60.7357 24.048C61.0077 23.8933 61.285 23.816 61.5677 23.816Z"
     fill="black"
     id="path12"
     style="fill:#2d3130;fill-opacity:1" />
  <path
     d="M67.7207 25.72C67.7207 25.784 67.6967 25.84 67.6487 25.888C67.6007 25.9307 67.5447 25.952 67.4807 25.952H64.4567C64.4567 26.272 64.5207 26.56 64.6487 26.816C64.782 27.0667 64.9687 27.2667 65.2087 27.416C65.454 27.56 65.742 27.632 66.0727 27.632C66.3287 27.632 66.558 27.5787 66.7607 27.472C66.9634 27.3653 67.126 27.2293 67.2487 27.064C67.3074 27.016 67.3634 26.992 67.4167 26.992C67.47 26.992 67.518 27.0133 67.5607 27.056C67.6034 27.0987 67.6247 27.1467 67.6247 27.2C67.6247 27.2587 67.598 27.3147 67.5447 27.368C67.374 27.576 67.158 27.7467 66.8967 27.88C66.6407 28.0133 66.3687 28.08 66.0807 28.08C65.67 28.08 65.3074 27.992 64.9927 27.816C64.678 27.64 64.4327 27.3947 64.2567 27.08C64.0807 26.76 63.9927 26.392 63.9927 25.976C63.9927 25.5387 64.078 25.1573 64.2487 24.832C64.4247 24.5013 64.6567 24.2507 64.9447 24.08C65.2327 23.904 65.5394 23.816 65.8647 23.816C66.1847 23.816 66.4834 23.8907 66.7607 24.04C67.0434 24.1893 67.2727 24.408 67.4487 24.696C67.6247 24.984 67.7154 25.3253 67.7207 25.72ZM65.8647 24.28C65.5554 24.28 65.2674 24.3867 65.0007 24.6C64.7394 24.8133 64.5714 25.12 64.4967 25.52H67.2247V25.456C67.198 25.216 67.118 25.008 66.9847 24.832C66.8514 24.6507 66.6834 24.5147 66.4807 24.424C66.2834 24.328 66.078 24.28 65.8647 24.28Z"
     fill="black"
     id="path14"
     style="fill:#2d3130;fill-opacity:1" />
  <path
     d="M69.51 24.376V27.056C69.51 27.2587 69.5473 27.3973 69.622 27.472C69.6967 27.5413 69.7953 27.576 69.918 27.576C69.95 27.576 69.99 27.5707 70.038 27.56C70.086 27.544 70.1233 27.536 70.15 27.536C70.198 27.536 70.238 27.5573 70.27 27.6C70.3073 27.6373 70.326 27.6827 70.326 27.736C70.326 27.8107 70.2833 27.8747 70.198 27.928C70.1127 27.976 70.0113 28 69.894 28C69.75 28 69.622 27.9867 69.51 27.96C69.398 27.9333 69.2887 27.8533 69.182 27.72C69.0807 27.5867 69.03 27.3733 69.03 27.08V24.376H68.446C68.382 24.376 68.326 24.3547 68.278 24.312C68.2353 24.2693 68.214 24.216 68.214 24.152C68.214 24.088 68.2353 24.0347 68.278 23.992C68.326 23.9493 68.382 23.928 68.446 23.928H69.03V23.04C69.03 22.9707 69.0513 22.9147 69.094 22.872C69.142 22.824 69.2007 22.8 69.27 22.8C69.3393 22.8 69.3953 22.824 69.438 22.872C69.486 22.9147 69.51 22.9707 69.51 23.04V23.928H70.31C70.3687 23.928 70.4193 23.952 70.462 24C70.51 24.048 70.534 24.1013 70.534 24.16C70.534 24.224 70.5127 24.2773 70.47 24.32C70.4273 24.3573 70.374 24.376 70.31 24.376H69.51Z"
     fill="black"
     id="path16"
     style="fill:#2d3130;fill-opacity:1" />
  <path
     d="M75.8644 22.4C76.1578 22.4 76.4218 22.4693 76.6564 22.608C76.8911 22.7413 77.0724 22.9307 77.2004 23.176C77.3338 23.416 77.4004 23.688 77.4004 23.992C77.4004 24.296 77.3338 24.5733 77.2004 24.824C77.0724 25.0747 76.8911 25.272 76.6564 25.416C76.4218 25.56 76.1578 25.632 75.8644 25.632H74.2084V27.76C74.2084 27.8293 74.1844 27.888 74.1364 27.936C74.0938 27.9787 74.0378 28 73.9684 28C73.8991 28 73.8404 27.9787 73.7924 27.936C73.7498 27.888 73.7284 27.8293 73.7284 27.76V22.64C73.7284 22.5707 73.7498 22.5147 73.7924 22.472C73.8404 22.424 73.8991 22.4 73.9684 22.4H75.8644ZM75.8644 25.168C76.1738 25.168 76.4244 25.056 76.6164 24.832C76.8084 24.608 76.9044 24.328 76.9044 23.992C76.9044 23.6613 76.8084 23.392 76.6164 23.184C76.4244 22.976 76.1738 22.872 75.8644 22.872H74.2084V25.168H75.8644Z"
     fill="black"
     id="path18"
     style="fill:#2d3130;fill-opacity:1" />
  <path
     d="M78.1421 27.352C78.0994 27.2827 78.0781 27.224 78.0781 27.176C78.0781 27.1067 78.1127 27.0533 78.1821 27.016C78.2141 26.984 78.2567 26.968 78.3101 26.968C78.3741 26.968 78.4327 26.9947 78.4861 27.048C78.8007 27.464 79.2194 27.672 79.7421 27.672C79.9981 27.672 80.2194 27.6133 80.4061 27.496C80.5981 27.3733 80.6941 27.1973 80.6941 26.968C80.6941 26.744 80.6061 26.576 80.4301 26.464C80.2541 26.352 80.0087 26.256 79.6941 26.176C79.2514 26.064 78.9047 25.92 78.6541 25.744C78.4034 25.5627 78.2781 25.2987 78.2781 24.952C78.2781 24.7333 78.3394 24.5387 78.4621 24.368C78.5847 24.192 78.7501 24.056 78.9581 23.96C79.1714 23.864 79.4114 23.816 79.6781 23.816C79.9074 23.816 80.1367 23.8613 80.3661 23.952C80.6007 24.0373 80.8007 24.176 80.9661 24.368C81.0141 24.4053 81.0381 24.4587 81.0381 24.528C81.0381 24.592 81.0114 24.648 80.9581 24.696C80.9207 24.728 80.8727 24.744 80.8141 24.744C80.7607 24.744 80.7127 24.7227 80.6701 24.68C80.5421 24.536 80.3901 24.4267 80.2141 24.352C80.0381 24.2773 79.8487 24.24 79.6461 24.24C79.3954 24.24 79.1794 24.2987 78.9981 24.416C78.8221 24.5333 78.7341 24.7093 78.7341 24.944C78.7447 25.1573 78.8407 25.32 79.0221 25.432C79.2087 25.544 79.4807 25.6453 79.8381 25.736C80.1154 25.8053 80.3447 25.8827 80.5261 25.968C80.7074 26.0533 80.8541 26.1733 80.9661 26.328C81.0834 26.4827 81.1421 26.688 81.1421 26.944C81.1421 27.2907 81.0034 27.568 80.7261 27.776C80.4487 27.9787 80.1047 28.08 79.6941 28.08C79.0434 28.08 78.5261 27.8373 78.1421 27.352Z"
     fill="black"
     id="path20"
     style="fill:#2d3130;fill-opacity:1" />
  <path
     d="M85.1721 23.84C85.2414 23.84 85.2974 23.864 85.3401 23.912C85.3881 23.9547 85.4121 24.0107 85.4121 24.08V27.608C85.4121 28.0293 85.3294 28.3893 85.1641 28.688C84.9987 28.9867 84.7694 29.2133 84.4761 29.368C84.1827 29.5227 83.8521 29.6 83.4841 29.6C83.2601 29.6 83.0494 29.576 82.8521 29.528C82.6601 29.48 82.5001 29.416 82.3721 29.336C82.2601 29.2667 82.2041 29.1893 82.2041 29.104C82.2041 29.0933 82.2094 29.0667 82.2201 29.024C82.2361 28.9707 82.2627 28.9307 82.3001 28.904C82.3374 28.8773 82.3774 28.864 82.4201 28.864C82.4521 28.864 82.4841 28.872 82.5161 28.888C82.8574 29.0747 83.1827 29.168 83.4921 29.168C83.9347 29.168 84.2841 29.0293 84.5401 28.752C84.8014 28.4747 84.9321 28.096 84.9321 27.616V27.336C84.7987 27.56 84.6067 27.7413 84.3561 27.88C84.1054 28.0133 83.8334 28.08 83.5401 28.08C83.0761 28.08 82.7241 27.9413 82.4841 27.664C82.2441 27.3867 82.1241 27.0107 82.1241 26.536V24.08C82.1241 24.0107 82.1454 23.9547 82.1881 23.912C82.2361 23.864 82.2947 23.84 82.3641 23.84C82.4334 23.84 82.4894 23.864 82.5321 23.912C82.5801 23.9547 82.6041 24.0107 82.6041 24.08V26.464C82.6041 26.848 82.6867 27.1387 82.8521 27.336C83.0227 27.5333 83.2867 27.632 83.6441 27.632C83.8627 27.632 84.0707 27.5787 84.2681 27.472C84.4707 27.36 84.6307 27.216 84.7481 27.04C84.8707 26.8587 84.9321 26.6667 84.9321 26.464V24.08C84.9321 24.0107 84.9534 23.9547 84.9961 23.912C85.0441 23.864 85.1027 23.84 85.1721 23.84Z"
     fill="black"
     id="path22"
     style="fill:#2d3130;fill-opacity:1" />
  <path
     d="M88.3999 23.816C88.6505 23.816 88.8826 23.8453 89.0959 23.904C89.3146 23.9573 89.4879 24.032 89.6159 24.128C89.7492 24.224 89.8159 24.328 89.8159 24.44C89.8159 24.4987 89.7946 24.552 89.7519 24.6C89.7146 24.648 89.6665 24.672 89.6079 24.672C89.5545 24.672 89.5092 24.6613 89.4719 24.64C89.4399 24.6187 89.4026 24.5867 89.3599 24.544C89.2906 24.4747 89.2239 24.424 89.1599 24.392C89.0799 24.3547 88.9732 24.3253 88.8399 24.304C88.7119 24.2773 88.5732 24.264 88.4239 24.264C88.1305 24.264 87.8612 24.3387 87.6159 24.488C87.3759 24.6373 87.1865 24.84 87.0479 25.096C86.9092 25.352 86.8399 25.6347 86.8399 25.944C86.8399 26.264 86.9066 26.552 87.0399 26.808C87.1732 27.064 87.3572 27.2667 87.5919 27.416C87.8319 27.56 88.1039 27.632 88.4079 27.632C88.5999 27.632 88.7519 27.616 88.8639 27.584C88.9812 27.552 89.0959 27.5067 89.2079 27.448C89.2452 27.4267 89.3092 27.3787 89.3999 27.304C89.4425 27.2667 89.4799 27.24 89.5119 27.224C89.5439 27.2027 89.5785 27.192 89.6159 27.192C89.6799 27.192 89.7305 27.2133 89.7679 27.256C89.8052 27.2933 89.8239 27.344 89.8239 27.408C89.8239 27.4987 89.7599 27.5973 89.6319 27.704C89.5039 27.8053 89.3279 27.8933 89.1039 27.968C88.8799 28.0427 88.6319 28.08 88.3599 28.08C87.9706 28.08 87.6239 27.9893 87.3199 27.808C87.0159 27.6213 86.7785 27.3653 86.6079 27.04C86.4425 26.7147 86.3599 26.3493 86.3599 25.944C86.3599 25.5547 86.4452 25.2 86.6159 24.88C86.7865 24.5547 87.0266 24.296 87.3359 24.104C87.6452 23.912 87.9999 23.816 88.3999 23.816Z"
     fill="black"
     id="path24"
     style="fill:#2d3130;fill-opacity:1" />
  <path
     d="M92.6053 23.88C93.0853 23.88 93.4426 24.032 93.6773 24.336C93.9119 24.6347 94.0293 25.0213 94.0293 25.496V27.76C94.0293 27.8293 94.0053 27.888 93.9573 27.936C93.9146 27.9787 93.8586 28 93.7893 28C93.7199 28 93.6613 27.9787 93.6133 27.936C93.5706 27.888 93.5493 27.8293 93.5493 27.76V25.496C93.5493 25.1493 93.4666 24.8693 93.3013 24.656C93.1359 24.4373 92.8773 24.328 92.5253 24.328C92.3013 24.328 92.0879 24.3813 91.8853 24.488C91.6879 24.5947 91.5279 24.7387 91.4053 24.92C91.2826 25.096 91.2213 25.288 91.2213 25.496V27.76C91.2213 27.8293 91.1973 27.888 91.1493 27.936C91.1066 27.9787 91.0506 28 90.9813 28C90.9119 28 90.8533 27.9787 90.8053 27.936C90.7626 27.888 90.7413 27.8293 90.7413 27.76V22.32C90.7413 22.2507 90.7626 22.1947 90.8053 22.152C90.8533 22.104 90.9119 22.08 90.9813 22.08C91.0506 22.08 91.1066 22.104 91.1493 22.152C91.1973 22.1947 91.2213 22.2507 91.2213 22.32V24.664C91.3653 24.4347 91.5653 24.248 91.8213 24.104C92.0773 23.9547 92.3386 23.88 92.6053 23.88Z"
     fill="black"
     id="path26"
     style="fill:#2d3130;fill-opacity:1" />
  <path
     d="M99.0641 25.952C99.0641 26.352 98.9761 26.7147 98.8001 27.04C98.6241 27.3653 98.3815 27.6213 98.0721 27.808C97.7628 27.9893 97.4188 28.08 97.0401 28.08C96.6615 28.08 96.3175 27.9893 96.0081 27.808C95.6988 27.6213 95.4561 27.3653 95.2801 27.04C95.1041 26.7147 95.0161 26.352 95.0161 25.952C95.0161 25.552 95.1041 25.1893 95.2801 24.864C95.4561 24.5387 95.6988 24.2827 96.0081 24.096C96.3175 23.9093 96.6615 23.816 97.0401 23.816C97.4188 23.816 97.7628 23.9093 98.0721 24.096C98.3815 24.2827 98.6241 24.5387 98.8001 24.864C98.9761 25.1893 99.0641 25.552 99.0641 25.952ZM98.5841 25.952C98.5841 25.632 98.5175 25.344 98.3841 25.088C98.2508 24.832 98.0641 24.632 97.8241 24.488C97.5895 24.3387 97.3281 24.264 97.0401 24.264C96.7521 24.264 96.4908 24.3387 96.2561 24.488C96.0215 24.632 95.8348 24.832 95.6961 25.088C95.5628 25.344 95.4961 25.632 95.4961 25.952C95.4961 26.2667 95.5628 26.552 95.6961 26.808C95.8348 27.064 96.0215 27.2667 96.2561 27.416C96.4908 27.56 96.7521 27.632 97.0401 27.632C97.3281 27.632 97.5895 27.56 97.8241 27.416C98.0641 27.272 98.2508 27.072 98.3841 26.816C98.5175 26.56 98.5841 26.272 98.5841 25.952Z"
     fill="black"
     id="path28"
     style="fill:#2d3130;fill-opacity:1" />
  <path
     d="M100.574 27.76C100.574 27.8293 100.55 27.888 100.502 27.936C100.459 27.9787 100.403 28 100.334 28C100.265 28 100.206 27.9787 100.158 27.936C100.115 27.888 100.094 27.8293 100.094 27.76V22.32C100.094 22.2507 100.115 22.1947 100.158 22.152C100.206 22.104 100.265 22.08 100.334 22.08C100.403 22.08 100.459 22.104 100.502 22.152C100.55 22.1947 100.574 22.2507 100.574 22.32V27.76Z"
     fill="black"
     id="path30"
     style="fill:#2d3130;fill-opacity:1" />
  <path
     d="M105.588 25.952C105.588 26.352 105.5 26.7147 105.324 27.04C105.148 27.3653 104.905 27.6213 104.596 27.808C104.286 27.9893 103.942 28.08 103.564 28.08C103.185 28.08 102.841 27.9893 102.532 27.808C102.222 27.6213 101.98 27.3653 101.804 27.04C101.628 26.7147 101.54 26.352 101.54 25.952C101.54 25.552 101.628 25.1893 101.804 24.864C101.98 24.5387 102.222 24.2827 102.532 24.096C102.841 23.9093 103.185 23.816 103.564 23.816C103.942 23.816 104.286 23.9093 104.596 24.096C104.905 24.2827 105.148 24.5387 105.324 24.864C105.5 25.1893 105.588 25.552 105.588 25.952ZM105.108 25.952C105.108 25.632 105.041 25.344 104.908 25.088C104.774 24.832 104.588 24.632 104.348 24.488C104.113 24.3387 103.852 24.264 103.564 24.264C103.276 24.264 103.014 24.3387 102.78 24.488C102.545 24.632 102.358 24.832 102.22 25.088C102.086 25.344 102.02 25.632 102.02 25.952C102.02 26.2667 102.086 26.552 102.22 26.808C102.358 27.064 102.545 27.2667 102.78 27.416C103.014 27.56 103.276 27.632 103.564 27.632C103.852 27.632 104.113 27.56 104.348 27.416C104.588 27.272 104.774 27.072 104.908 26.816C105.041 26.56 105.108 26.272 105.108 25.952Z"
     fill="black"
     id="path32"
     style="fill:#2d3130;fill-opacity:1" />
  <path
     d="M110.025 23.912C110.095 23.912 110.151 23.936 110.193 23.984C110.241 24.0267 110.265 24.0853 110.265 24.16V27.624C110.265 28.04 110.177 28.3947 110.001 28.688C109.831 28.9867 109.593 29.2133 109.289 29.368C108.991 29.5227 108.647 29.6 108.257 29.6C108.071 29.6 107.873 29.576 107.665 29.528C107.463 29.48 107.287 29.4187 107.137 29.344C106.993 29.2693 106.911 29.192 106.889 29.112C106.852 29.0747 106.833 29.032 106.833 28.984C106.833 28.9307 106.857 28.888 106.905 28.856C106.927 28.84 106.953 28.832 106.985 28.832C107.017 28.832 107.079 28.8507 107.169 28.888L107.337 28.96C107.668 29.088 107.977 29.152 108.265 29.152C108.74 29.152 109.111 29.016 109.377 28.744C109.649 28.4773 109.785 28.1147 109.785 27.656V27.16C109.652 27.448 109.441 27.6747 109.153 27.84C108.865 28 108.564 28.08 108.249 28.08C107.881 28.08 107.548 27.9893 107.249 27.808C106.956 27.6213 106.724 27.3653 106.553 27.04C106.383 26.7147 106.297 26.3493 106.297 25.944C106.297 25.544 106.383 25.1813 106.553 24.856C106.724 24.5307 106.956 24.2773 107.249 24.096C107.548 23.9093 107.879 23.816 108.241 23.816C108.577 23.816 108.884 23.9013 109.161 24.072C109.444 24.2373 109.652 24.4373 109.785 24.672V24.16C109.785 24.0907 109.807 24.032 109.849 23.984C109.897 23.936 109.956 23.912 110.025 23.912ZM108.289 27.632C108.583 27.632 108.844 27.5627 109.073 27.424C109.308 27.28 109.489 27.08 109.617 26.824C109.751 26.5627 109.817 26.2693 109.817 25.944C109.817 25.6187 109.751 25.328 109.617 25.072C109.489 24.816 109.308 24.6187 109.073 24.48C108.844 24.336 108.583 24.264 108.289 24.264C108.001 24.264 107.74 24.3387 107.505 24.488C107.276 24.632 107.095 24.832 106.961 25.088C106.833 25.344 106.769 25.6293 106.769 25.944C106.769 26.264 106.833 26.552 106.961 26.808C107.095 27.064 107.276 27.2667 107.505 27.416C107.74 27.56 108.001 27.632 108.289 27.632Z"
     id="path34"
     fill="black"
     style="fill:#2d3130;fill-opacity:1" />
  <path
     d="M111.994 27.76C111.994 27.8293 111.97 27.888 111.922 27.936C111.88 27.9787 111.824 28 111.754 28C111.685 28 111.626 27.9787 111.578 27.936C111.536 27.888 111.514 27.8293 111.514 27.76V24.08C111.514 24.0107 111.536 23.9547 111.578 23.912C111.626 23.864 111.685 23.84 111.754 23.84C111.824 23.84 111.88 23.864 111.922 23.912C111.97 23.9547 111.994 24.0107 111.994 24.08V27.76ZM111.754 23.304C111.648 23.304 111.565 23.28 111.506 23.232C111.448 23.1787 111.418 23.104 111.418 23.008V22.928C111.418 22.832 111.448 22.76 111.506 22.712C111.57 22.6587 111.656 22.632 111.762 22.632C111.976 22.632 112.082 22.7307 112.082 22.928V23.008C112.082 23.104 112.053 23.1787 111.994 23.232C111.941 23.28 111.861 23.304 111.754 23.304Z"
     fill="black"
     id="path36"
     style="fill:#2d3130;fill-opacity:1" />
  <path
     d="M115.009 23.816C115.26 23.816 115.492 23.8453 115.705 23.904C115.924 23.9573 116.097 24.032 116.225 24.128C116.359 24.224 116.425 24.328 116.425 24.44C116.425 24.4987 116.404 24.552 116.361 24.6C116.324 24.648 116.276 24.672 116.217 24.672C116.164 24.672 116.119 24.6613 116.081 24.64C116.049 24.6187 116.012 24.5867 115.969 24.544C115.9 24.4747 115.833 24.424 115.769 24.392C115.689 24.3547 115.583 24.3253 115.449 24.304C115.321 24.2773 115.183 24.264 115.033 24.264C114.74 24.264 114.471 24.3387 114.225 24.488C113.985 24.6373 113.796 24.84 113.657 25.096C113.519 25.352 113.449 25.6347 113.449 25.944C113.449 26.264 113.516 26.552 113.649 26.808C113.783 27.064 113.967 27.2667 114.201 27.416C114.441 27.56 114.713 27.632 115.017 27.632C115.209 27.632 115.361 27.616 115.473 27.584C115.591 27.552 115.705 27.5067 115.817 27.448C115.855 27.4267 115.919 27.3787 116.009 27.304C116.052 27.2667 116.089 27.24 116.121 27.224C116.153 27.2027 116.188 27.192 116.225 27.192C116.289 27.192 116.34 27.2133 116.377 27.256C116.415 27.2933 116.433 27.344 116.433 27.408C116.433 27.4987 116.369 27.5973 116.241 27.704C116.113 27.8053 115.937 27.8933 115.713 27.968C115.489 28.0427 115.241 28.08 114.969 28.08C114.58 28.08 114.233 27.9893 113.929 27.808C113.625 27.6213 113.388 27.3653 113.217 27.04C113.052 26.7147 112.969 26.3493 112.969 25.944C112.969 25.5547 113.055 25.2 113.225 24.88C113.396 24.5547 113.636 24.296 113.945 24.104C114.255 23.912 114.609 23.816 115.009 23.816Z"
     fill="black"
     id="path38"
     style="fill:#2d3130;fill-opacity:1" />
  <path
     d="M119.911 27.552C119.98 27.552 120.036 27.5733 120.079 27.616C120.121 27.6587 120.143 27.712 120.143 27.776C120.143 27.84 120.121 27.8933 120.079 27.936C120.036 27.9787 119.98 28 119.911 28H117.311C117.241 28 117.185 27.976 117.143 27.928C117.1 27.8747 117.079 27.8213 117.079 27.768C117.079 27.6987 117.103 27.6373 117.151 27.584L119.519 24.304H117.511C117.447 24.304 117.391 24.2827 117.343 24.24C117.3 24.1973 117.279 24.144 117.279 24.08C117.279 24.016 117.3 23.9627 117.343 23.92C117.391 23.8773 117.447 23.856 117.511 23.856H119.967C120.031 23.856 120.084 23.88 120.127 23.928C120.169 23.976 120.191 24.032 120.191 24.096C120.191 24.1547 120.169 24.2133 120.127 24.272L117.751 27.552H119.911Z"
     fill="black"
     id="path40"
     style="fill:#2d3130;fill-opacity:1" />
  <path
     d="M123.107 23.816C123.603 23.816 123.965 23.9627 124.195 24.256C124.429 24.544 124.547 24.928 124.547 25.408V27.76C124.547 27.8293 124.523 27.888 124.475 27.936C124.427 27.9787 124.371 28 124.307 28C124.237 28 124.179 27.9787 124.131 27.936C124.088 27.888 124.067 27.8293 124.067 27.76V25.432C124.067 25.0853 123.979 24.8053 123.803 24.592C123.632 24.3733 123.365 24.264 123.003 24.264C122.773 24.264 122.555 24.3173 122.347 24.424C122.144 24.5307 121.979 24.6747 121.851 24.856C121.723 25.032 121.659 25.224 121.659 25.432V27.76C121.659 27.8293 121.635 27.888 121.587 27.936C121.544 27.9787 121.488 28 121.419 28C121.349 28 121.291 27.9787 121.243 27.936C121.2 27.888 121.179 27.8293 121.179 27.76V24.176C121.179 24.1067 121.2 24.0507 121.243 24.008C121.291 23.96 121.349 23.936 121.419 23.936C121.488 23.936 121.544 23.96 121.587 24.008C121.635 24.0507 121.659 24.1067 121.659 24.176V24.616C121.803 24.3867 122.008 24.1973 122.275 24.048C122.547 23.8933 122.824 23.816 123.107 23.816Z"
     fill="black"
     id="path42"
     style="fill:#2d3130;fill-opacity:1" />
  <path
     d="M128.813 23.84C128.882 23.84 128.938 23.864 128.981 23.912C129.029 23.9547 129.053 24.0107 129.053 24.08V27.608C129.053 28.0293 128.97 28.3893 128.805 28.688C128.639 28.9867 128.41 29.2133 128.117 29.368C127.823 29.5227 127.493 29.6 127.125 29.6C126.901 29.6 126.69 29.576 126.493 29.528C126.301 29.48 126.141 29.416 126.013 29.336C125.901 29.2667 125.845 29.1893 125.845 29.104C125.845 29.0933 125.85 29.0667 125.861 29.024C125.877 28.9707 125.903 28.9307 125.941 28.904C125.978 28.8773 126.018 28.864 126.061 28.864C126.093 28.864 126.125 28.872 126.157 28.888C126.498 29.0747 126.823 29.168 127.133 29.168C127.575 29.168 127.925 29.0293 128.181 28.752C128.442 28.4747 128.573 28.096 128.573 27.616V27.336C128.439 27.56 128.247 27.7413 127.997 27.88C127.746 28.0133 127.474 28.08 127.181 28.08C126.717 28.08 126.365 27.9413 126.125 27.664C125.885 27.3867 125.765 27.0107 125.765 26.536V24.08C125.765 24.0107 125.786 23.9547 125.829 23.912C125.877 23.864 125.935 23.84 126.005 23.84C126.074 23.84 126.13 23.864 126.173 23.912C126.221 23.9547 126.245 24.0107 126.245 24.08V26.464C126.245 26.848 126.327 27.1387 126.493 27.336C126.663 27.5333 126.927 27.632 127.285 27.632C127.503 27.632 127.711 27.5787 127.909 27.472C128.111 27.36 128.271 27.216 128.389 27.04C128.511 26.8587 128.573 26.6667 128.573 26.464V24.08C128.573 24.0107 128.594 23.9547 128.637 23.912C128.685 23.864 128.743 23.84 128.813 23.84Z"
     fill="black"
     id="path44"
     style="fill:#2d3130;fill-opacity:1" />
  <path
     d="M15.1031 23.82C15.2764 23.82 15.4164 23.88 15.5231 24C15.6431 24.12 15.7031 24.26 15.7031 24.42C15.7031 24.5933 15.6431 24.7333 15.5231 24.84C15.4164 24.9467 15.2764 25 15.1031 25H7.76309C7.58975 25 7.44309 24.9467 7.32309 24.84C7.21642 24.72 7.16309 24.5733 7.16309 24.4V11.6C7.16309 11.4267 7.21642 11.2867 7.32309 11.18C7.44309 11.06 7.58975 11 7.76309 11H15.1031C15.2764 11 15.4164 11.06 15.5231 11.18C15.6431 11.2867 15.7031 11.4267 15.7031 11.6C15.7031 11.7733 15.6431 11.9133 15.5231 12.02C15.4164 12.1267 15.2764 12.18 15.1031 12.18H8.42309V17.2H14.2031C14.3764 17.2 14.5164 17.26 14.6231 17.38C14.7431 17.4867 14.8031 17.6267 14.8031 17.8C14.8031 17.9733 14.7431 18.1133 14.6231 18.22C14.5164 18.3267 14.3764 18.38 14.2031 18.38H8.42309V23.82H15.1031Z"
     fill="black"
     id="path46"
     style="fill:#2d3130;fill-opacity:1" />
  <path
     d="M28.7503 12.04C28.9503 12.16 29.0503 12.3267 29.0503 12.54C29.0503 12.66 29.0036 12.7933 28.9103 12.94C28.7903 13.0867 28.6369 13.16 28.4503 13.16C28.3436 13.16 28.2369 13.1267 28.1303 13.06C27.0636 12.3533 25.8969 12 24.6303 12C23.5503 12 22.5703 12.2533 21.6903 12.76C20.8236 13.2667 20.1369 13.98 19.6303 14.9C19.1369 15.8067 18.8903 16.84 18.8903 18C18.8903 19.1867 19.1436 20.24 19.6503 21.16C20.1569 22.0667 20.8436 22.7733 21.7103 23.28C22.5903 23.7733 23.5636 24.02 24.6303 24.02C25.8969 24.02 27.0569 23.6733 28.1103 22.98C28.2169 22.9133 28.3303 22.88 28.4503 22.88C28.6369 22.88 28.7903 22.96 28.9103 23.12C29.0036 23.2267 29.0503 23.3533 29.0503 23.5C29.0503 23.7133 28.9569 23.8733 28.7703 23.98C28.2503 24.3267 27.6103 24.62 26.8503 24.86C26.0903 25.0867 25.3503 25.2 24.6303 25.2C23.3636 25.2 22.1903 24.9 21.1103 24.3C20.0436 23.6867 19.1903 22.8333 18.5503 21.74C17.9236 20.6467 17.6103 19.4 17.6103 18C17.6103 16.6533 17.9236 15.4333 18.5503 14.34C19.1769 13.2333 20.0236 12.3733 21.0903 11.76C22.1569 11.1333 23.3369 10.82 24.6303 10.82C25.3769 10.82 26.1036 10.9267 26.8103 11.14C27.5303 11.3533 28.1769 11.6533 28.7503 12.04Z"
     fill="black"
     id="path48"
     style="fill:#2d3130;fill-opacity:1" />
  <path
     d="M48.8559 15.056C48.9946 15.056 49.1065 15.104 49.1919 15.2C49.2879 15.296 49.3359 15.408 49.3359 15.536C49.3359 15.6747 49.2879 15.7867 49.1919 15.872C49.1065 15.9573 48.9946 16 48.8559 16H42.9839C42.8452 16 42.7279 15.9573 42.6319 15.872C42.5465 15.776 42.5039 15.6587 42.5039 15.52V5.28001C42.5039 5.14134 42.5465 5.02934 42.6319 4.94401C42.7279 4.84801 42.8452 4.80001 42.9839 4.80001H48.8559C48.9946 4.80001 49.1065 4.84801 49.1919 4.94401C49.2879 5.02934 49.3359 5.14134 49.3359 5.28001C49.3359 5.41868 49.2879 5.53067 49.1919 5.61601C49.1065 5.70134 48.9946 5.74401 48.8559 5.74401H43.5119V9.76001H48.1359C48.2746 9.76001 48.3865 9.80801 48.4719 9.90401C48.5679 9.98934 48.6159 10.1013 48.6159 10.24C48.6159 10.3787 48.5679 10.4907 48.4719 10.576C48.3865 10.6613 48.2746 10.704 48.1359 10.704H43.5119V15.056H48.8559Z"
     fill="black"
     id="path50"
     style="fill:#2d3130;fill-opacity:1" />
  <path
     d="M60.5576 4.80001C60.6856 4.80001 60.7923 4.84801 60.8776 4.94401C60.9736 5.02934 61.0216 5.14134 61.0216 5.28001V15.52C61.0216 15.6587 60.9736 15.776 60.8776 15.872C60.7816 15.9573 60.6643 16 60.5256 16C60.3763 16 60.2536 15.9573 60.1576 15.872C60.0616 15.776 60.0136 15.6587 60.0136 15.52V6.72001L56.2536 12.416C56.147 12.5547 56.0243 12.6187 55.8856 12.608H55.8536C55.7256 12.608 55.6083 12.544 55.5016 12.416L51.7416 6.68801V15.52C51.7416 15.6587 51.6936 15.776 51.5976 15.872C51.5123 15.9573 51.4003 16 51.2616 16C51.123 16 51.011 15.9573 50.9256 15.872C50.8403 15.776 50.7976 15.6587 50.7976 15.52V5.28001C50.7976 5.15201 50.8403 5.04001 50.9256 4.94401C51.0216 4.84801 51.139 4.80001 51.2776 4.80001C51.3523 4.80001 51.4323 4.82134 51.5176 4.86401C51.603 4.89601 51.667 4.94401 51.7096 5.00801L55.9016 11.296L60.1256 5.00801C60.243 4.84801 60.387 4.77867 60.5576 4.80001Z"
     fill="black"
     id="path52"
     style="fill:#2d3130;fill-opacity:1" />
  <path
     d="M64.24 15.504C64.2293 15.6427 64.176 15.76 64.08 15.856C63.984 15.952 63.8667 16 63.728 16C63.5787 16 63.456 15.9573 63.36 15.872C63.2747 15.776 63.232 15.6533 63.232 15.504V5.29601C63.232 5.14667 63.28 5.02934 63.376 4.94401C63.472 4.84801 63.5947 4.80001 63.744 4.80001C63.8827 4.80001 64 4.84801 64.096 4.94401C64.192 5.04001 64.24 5.15734 64.24 5.29601V15.504Z"
     fill="black"
     id="path54"
     style="fill:#2d3130;fill-opacity:1" />
  <path
     d="M72.624 15.056C72.7627 15.056 72.8747 15.0987 72.96 15.184C73.056 15.2693 73.104 15.3813 73.104 15.52C73.104 15.6587 73.056 15.776 72.96 15.872C72.8747 15.9573 72.7627 16 72.624 16H66.912C66.7733 16 66.656 15.9573 66.56 15.872C66.4747 15.776 66.432 15.6587 66.432 15.52V5.28001C66.432 5.14134 66.48 5.02934 66.576 4.94401C66.672 4.84801 66.7947 4.80001 66.944 4.80001C67.0827 4.80001 67.2 4.84801 67.296 4.94401C67.392 5.02934 67.44 5.14134 67.44 5.28001V15.056H72.624Z"
     fill="black"
     id="path56"
     style="fill:#2d3130;fill-opacity:1" />
  <path
     d="M75.1556 15.504C75.145 15.6427 75.0916 15.76 74.9956 15.856C74.8996 15.952 74.7823 16 74.6436 16C74.4943 16 74.3716 15.9573 74.2756 15.872C74.1903 15.776 74.1476 15.6533 74.1476 15.504V5.29601C74.1476 5.14667 74.1956 5.02934 74.2916 4.94401C74.3876 4.84801 74.5103 4.80001 74.6596 4.80001C74.7983 4.80001 74.9156 4.84801 75.0116 4.94401C75.1076 5.04001 75.1556 5.15734 75.1556 5.29601V15.504Z"
     fill="black"
     id="path58"
     style="fill:#2d3130;fill-opacity:1" />
  <path
     d="M85.6996 15.36C85.721 15.4453 85.7316 15.5093 85.7316 15.552C85.7316 15.6907 85.6836 15.8027 85.5876 15.888C85.4916 15.9733 85.3796 16.016 85.2516 16.016C85.145 16.016 85.049 15.9893 84.9636 15.936C84.889 15.872 84.8303 15.792 84.7876 15.696L83.5876 12.768H78.3876L77.2036 15.696C77.1183 15.9093 76.9743 16.016 76.7716 16.016C76.6223 16.016 76.5103 15.9787 76.4356 15.904C76.361 15.8293 76.3183 15.728 76.3076 15.6V15.552C76.3076 15.488 76.313 15.44 76.3236 15.408L80.5476 5.07201C80.633 4.85868 80.793 4.75201 81.0276 4.75201C81.1343 4.75201 81.225 4.78401 81.2996 4.84801C81.385 4.90134 81.449 4.97601 81.4916 5.07201L85.6996 15.36ZM83.2036 11.824L80.9636 6.35201L78.7556 11.824H83.2036Z"
     fill="black"
     id="path60"
     style="fill:#2d3130;fill-opacity:1" />
  <path
     d="M98.658 5.63201C98.818 5.72801 98.898 5.86134 98.898 6.03201C98.898 6.12801 98.8607 6.23467 98.786 6.35201C98.69 6.46934 98.5673 6.52801 98.418 6.52801C98.3327 6.52801 98.2473 6.50134 98.162 6.44801C97.3087 5.88267 96.3753 5.60001 95.362 5.60001C94.498 5.60001 93.714 5.80267 93.01 6.20801C92.3167 6.61334 91.7673 7.18401 91.362 7.92001C90.9673 8.64534 90.77 9.47201 90.77 10.4C90.77 11.3493 90.9727 12.192 91.378 12.928C91.7833 13.6533 92.3327 14.2187 93.026 14.624C93.73 15.0187 94.5087 15.216 95.362 15.216C96.3753 15.216 97.3033 14.9387 98.146 14.384C98.2313 14.3307 98.322 14.304 98.418 14.304C98.5673 14.304 98.69 14.368 98.786 14.496C98.8607 14.5813 98.898 14.6827 98.898 14.8C98.898 14.9707 98.8233 15.0987 98.674 15.184C98.258 15.4613 97.746 15.696 97.138 15.888C96.53 16.0693 95.938 16.16 95.362 16.16C94.3487 16.16 93.41 15.92 92.546 15.44C91.6927 14.9493 91.01 14.2667 90.498 13.392C89.9967 12.5173 89.746 11.52 89.746 10.4C89.746 9.32267 89.9967 8.34667 90.498 7.47201C90.9993 6.58667 91.6767 5.89867 92.53 5.40801C93.3833 4.90667 94.3273 4.65601 95.362 4.65601C95.9593 4.65601 96.5407 4.74134 97.106 4.91201C97.682 5.08267 98.1993 5.32267 98.658 5.63201Z"
     fill="black"
     id="path62"
     style="fill:#2d3130;fill-opacity:1" />
  <path
     d="M113.095 4.76801C113.244 4.76801 113.367 4.81067 113.463 4.89601C113.559 4.98134 113.607 5.09867 113.607 5.24801L113.575 5.45601L110.039 15.696C110.007 15.792 109.948 15.8667 109.863 15.92C109.788 15.9733 109.703 16 109.607 16C109.362 16 109.202 15.8987 109.127 15.696L106.359 8.86401L103.591 15.696C103.495 15.8987 103.335 16 103.111 16C103.015 16 102.924 15.9733 102.839 15.92C102.764 15.8667 102.716 15.792 102.695 15.696L99.1591 5.45601C99.1271 5.39201 99.1111 5.32801 99.1111 5.26401C99.1111 5.11467 99.1645 4.99734 99.2711 4.91201C99.3885 4.81601 99.5111 4.76801 99.6391 4.76801C99.7458 4.76801 99.8418 4.79467 99.9271 4.84801C100.012 4.90134 100.071 4.97601 100.103 5.07201L103.239 14.224L105.927 7.52001C106.023 7.30667 106.172 7.20534 106.375 7.21601C106.482 7.20534 106.572 7.23201 106.647 7.29601C106.732 7.34934 106.796 7.42401 106.839 7.52001L109.511 14.224L112.615 5.07201C112.7 4.86934 112.86 4.76801 113.095 4.76801Z"
     fill="black"
     id="path64"
     style="fill:#2d3130;fill-opacity:1" />
  <path
     d="M124.694 10.4C124.694 11.4987 124.465 12.4853 124.006 13.36C123.547 14.2347 122.913 14.9227 122.102 15.424C121.291 15.9147 120.369 16.16 119.334 16.16C118.299 16.16 117.377 15.9147 116.566 15.424C115.755 14.9227 115.121 14.2347 114.662 13.36C114.203 12.4853 113.974 11.4987 113.974 10.4C113.974 9.29067 114.203 8.29867 114.662 7.42401C115.121 6.54934 115.755 5.86667 116.566 5.37601C117.377 4.88534 118.299 4.64001 119.334 4.64001C120.369 4.64001 121.291 4.88534 122.102 5.37601C122.913 5.86667 123.547 6.54934 124.006 7.42401C124.465 8.29867 124.694 9.29067 124.694 10.4ZM123.67 10.4C123.67 9.47201 123.483 8.64534 123.11 7.92001C122.747 7.18401 122.235 6.61334 121.574 6.20801C120.923 5.80267 120.177 5.60001 119.334 5.60001C118.491 5.60001 117.739 5.80267 117.078 6.20801C116.427 6.61334 115.915 7.18401 115.542 7.92001C115.179 8.64534 114.998 9.47201 114.998 10.4C114.998 11.328 115.179 12.16 115.542 12.896C115.915 13.6213 116.427 14.1867 117.078 14.592C117.739 14.9973 118.491 15.2 119.334 15.2C120.177 15.2 120.923 14.9973 121.574 14.592C122.235 14.1867 122.747 13.6213 123.11 12.896C123.483 12.16 123.67 11.328 123.67 10.4Z"
     fill="black"
     id="path66"
     style="fill:#2d3130;fill-opacity:1" />
  <path
     d="M128.582 16.16C127.92 16.16 127.323 15.9787 126.79 15.616C126.256 15.2427 125.846 14.7467 125.558 14.128C125.504 14.0427 125.478 13.9573 125.478 13.872C125.478 13.744 125.526 13.6373 125.622 13.552C125.728 13.4667 125.84 13.424 125.958 13.424C126.128 13.424 126.278 13.5147 126.406 13.696C126.608 14.1547 126.902 14.5227 127.286 14.8C127.67 15.0667 128.102 15.2 128.582 15.2C129.318 15.2 129.915 14.976 130.374 14.528C130.832 14.0693 131.062 13.472 131.062 12.736V5.28001C131.062 5.14134 131.11 5.02934 131.206 4.94401C131.302 4.84801 131.424 4.80001 131.574 4.80001C131.723 4.80001 131.84 4.84801 131.926 4.94401C132.022 5.02934 132.07 5.14134 132.07 5.28001V12.736C132.07 13.3867 131.92 13.9733 131.622 14.496C131.323 15.0187 130.907 15.4293 130.374 15.728C129.851 16.016 129.254 16.16 128.582 16.16Z"
     fill="black"
     id="path68"
     style="fill:#2d3130;fill-opacity:1" />
  <path
     d="M138.842 4.80001C139.866 4.80001 140.725 5.05601 141.418 5.56801C142.122 6.06934 142.645 6.74667 142.986 7.60001C143.338 8.44267 143.514 9.37601 143.514 10.4C143.514 11.456 143.338 12.4053 142.986 13.248C142.645 14.0907 142.122 14.7627 141.418 15.264C140.725 15.7547 139.866 16 138.842 16H134.762C134.623 16 134.506 15.9573 134.41 15.872C134.325 15.776 134.282 15.6587 134.282 15.52V5.28001C134.282 5.14134 134.325 5.02934 134.41 4.94401C134.506 4.84801 134.623 4.80001 134.762 4.80001H138.842ZM138.682 15.056C139.962 15.056 140.917 14.6293 141.546 13.776C142.175 12.912 142.49 11.7867 142.49 10.4C142.49 9.53601 142.357 8.75734 142.09 8.06401C141.823 7.36001 141.402 6.80001 140.826 6.38401C140.261 5.95734 139.546 5.74401 138.682 5.74401H135.29V15.056H138.682Z"
     fill="black"
     id="path70"
     style="fill:#2d3130;fill-opacity:1" />
  <path
     d="M152.268 15.088C152.406 15.088 152.518 15.136 152.604 15.232C152.7 15.3173 152.748 15.4187 152.748 15.536C152.748 15.6747 152.7 15.7867 152.604 15.872C152.518 15.9573 152.406 16 152.268 16H144.604C144.454 16 144.332 15.952 144.236 15.856C144.15 15.7493 144.108 15.632 144.108 15.504C144.108 15.408 144.14 15.312 144.204 15.216L151.404 5.71201H145.004C144.865 5.71201 144.748 5.66934 144.652 5.58401C144.566 5.49867 144.524 5.38667 144.524 5.24801C144.524 5.12001 144.566 5.01334 144.652 4.92801C144.748 4.84267 144.865 4.80001 145.004 4.80001H152.284C152.444 4.80001 152.572 4.84801 152.668 4.94401C152.764 5.04001 152.812 5.15201 152.812 5.28001C152.812 5.37601 152.78 5.47201 152.716 5.56801L145.532 15.088H152.268Z"
     fill="black"
     id="path72"
     style="fill:#2d3130;fill-opacity:1" />
  <path
     d="M155.253 15.504C155.242 15.6427 155.188 15.76 155.092 15.856C154.996 15.952 154.879 16 154.741 16C154.591 16 154.469 15.9573 154.373 15.872C154.287 15.776 154.245 15.6533 154.245 15.504V5.29601C154.245 5.14667 154.293 5.02934 154.389 4.94401C154.485 4.84801 154.607 4.80001 154.757 4.80001C154.895 4.80001 155.013 4.84801 155.109 4.94401C155.205 5.04001 155.253 5.15734 155.253 5.29601V15.504Z"
     fill="black"
     id="path74"
     style="fill:#2d3130;fill-opacity:1" />
  <path
     d="M165.637 4.80001C165.775 4.80001 165.882 4.84267 165.957 4.92801C166.042 5.01334 166.085 5.12001 166.085 5.24801V15.488C166.085 15.648 166.037 15.776 165.941 15.872C165.845 15.9573 165.727 16 165.589 16C165.514 16 165.439 15.984 165.365 15.952C165.301 15.92 165.247 15.8827 165.205 15.84L158.341 6.59201V15.568C158.341 15.6853 158.293 15.7867 158.197 15.872C158.111 15.9573 158.01 16 157.893 16C157.765 16 157.658 15.9573 157.573 15.872C157.487 15.7867 157.445 15.6853 157.445 15.568V5.28001C157.445 5.13068 157.487 5.01334 157.573 4.92801C157.669 4.84267 157.781 4.80001 157.909 4.80001C158.079 4.80001 158.207 4.85867 158.293 4.97601L165.189 14.272V5.24801C165.189 5.12001 165.231 5.01334 165.317 4.92801C165.402 4.84267 165.509 4.80001 165.637 4.80001ZM161.829 4.06401C161.733 4.06401 161.658 4.03734 161.605 3.98401C161.551 3.93067 161.525 3.86134 161.525 3.77601C161.525 3.69067 161.578 3.59467 161.685 3.48801L163.109 2.38401C163.247 2.26667 163.402 2.20801 163.573 2.20801C163.711 2.20801 163.823 2.25601 163.909 2.35201C164.005 2.43734 164.053 2.54934 164.053 2.68801C164.053 2.90134 163.951 3.06667 163.749 3.18401L162.181 3.96801C162.031 4.03201 161.914 4.06401 161.829 4.06401Z"
     fill="black"
     id="path76"
     style="fill:#2d3130;fill-opacity:1" />
  <path
     d="M171.309 16.16C170.541 16.16 169.858 16.032 169.261 15.776C168.674 15.52 168.104 15.12 167.549 14.576C167.421 14.4693 167.357 14.3413 167.357 14.192C167.357 14.064 167.405 13.9467 167.501 13.84C167.608 13.7333 167.725 13.68 167.853 13.68C167.981 13.68 168.098 13.7333 168.205 13.84C169.037 14.7573 170.077 15.216 171.325 15.216C172.093 15.216 172.728 15.0347 173.229 14.672C173.741 14.3093 173.997 13.8347 173.997 13.248C173.997 12.7893 173.869 12.4107 173.613 12.112C173.368 11.8027 173.042 11.552 172.637 11.36C172.232 11.168 171.714 10.9707 171.085 10.768C170.402 10.5653 169.826 10.3413 169.357 10.096C168.898 9.85067 168.525 9.52534 168.237 9.12001C167.949 8.70401 167.805 8.18134 167.805 7.55201C167.805 6.98667 167.954 6.48534 168.253 6.04801C168.562 5.61067 168.989 5.26934 169.533 5.02401C170.088 4.76801 170.722 4.64001 171.437 4.64001C172.088 4.64001 172.696 4.75201 173.261 4.97601C173.837 5.18934 174.296 5.49867 174.637 5.90401C174.797 6.08534 174.877 6.24001 174.877 6.36801C174.877 6.48534 174.824 6.59734 174.717 6.70401C174.61 6.80001 174.493 6.84801 174.365 6.84801C174.258 6.84801 174.168 6.81067 174.093 6.73601C173.805 6.39467 173.421 6.11734 172.941 5.90401C172.461 5.69067 171.96 5.58401 171.437 5.58401C170.658 5.58401 170.024 5.76001 169.533 6.11201C169.042 6.45334 168.797 6.92267 168.797 7.52001C168.797 8.13867 169.032 8.61334 169.501 8.94401C169.97 9.27467 170.642 9.57867 171.517 9.85601C172.274 10.08 172.893 10.3093 173.373 10.544C173.853 10.7787 174.242 11.1147 174.541 11.552C174.85 11.9787 175.005 12.544 175.005 13.248C175.005 13.792 174.845 14.288 174.525 14.736C174.216 15.1733 173.778 15.52 173.213 15.776C172.658 16.032 172.024 16.16 171.309 16.16Z"
     fill="black"
     id="path78"
     style="fill:#2d3130;fill-opacity:1" />
  <path
     d="M184.902 15.216C184.976 15.3227 185.014 15.4347 185.014 15.552C185.014 15.712 184.955 15.84 184.838 15.936C184.731 16.0213 184.608 16.064 184.47 16.064C184.331 16.064 184.214 16.0053 184.118 15.888L179.654 10.272L177.478 12.32V15.504C177.467 15.6533 177.414 15.776 177.318 15.872C177.222 15.9573 177.104 16 176.965 16C176.816 16 176.694 15.9573 176.598 15.872C176.512 15.776 176.469 15.6533 176.469 15.504V5.29601C176.469 5.14667 176.518 5.02934 176.614 4.94401C176.71 4.84801 176.832 4.80001 176.982 4.80001C177.131 4.80001 177.248 4.84801 177.334 4.94401C177.43 5.02934 177.478 5.14667 177.478 5.29601V11.104L183.942 4.99201C184.038 4.88534 184.155 4.83201 184.294 4.83201C184.422 4.83201 184.528 4.88001 184.614 4.97601C184.71 5.07201 184.758 5.17868 184.758 5.29601C184.758 5.42401 184.71 5.53601 184.614 5.63201L180.422 9.55201L184.902 15.216Z"
     fill="black"
     id="path80"
     style="fill:#2d3130;fill-opacity:1" />
  <path
     d="M194.818 15.36C194.84 15.4453 194.85 15.5093 194.85 15.552C194.85 15.6907 194.802 15.8027 194.706 15.888C194.61 15.9733 194.498 16.016 194.37 16.016C194.264 16.016 194.168 15.9893 194.082 15.936C194.008 15.872 193.949 15.792 193.906 15.696L192.706 12.768H187.506L186.322 15.696C186.237 15.9093 186.093 16.016 185.89 16.016C185.741 16.016 185.629 15.9787 185.554 15.904C185.48 15.8293 185.437 15.728 185.426 15.6V15.552C185.426 15.488 185.432 15.44 185.442 15.408L189.666 5.07201C189.752 4.85868 189.912 4.75201 190.146 4.75201C190.253 4.75201 190.344 4.78401 190.418 4.84801C190.504 4.90134 190.568 4.97601 190.61 5.07201L194.818 15.36ZM192.322 11.824L190.082 6.35201L187.874 11.824H192.322Z"
     fill="black"
     id="path82"
     style="fill:#2d3130;fill-opacity:1" />
  <path
     d="M7 0.375H34.625V28C34.625 31.6589 31.6589 34.625 28 34.625H0.375V7C0.375 3.34111 3.34111 0.375 7 0.375Z"
     stroke="black"
     stroke-width="0.75"
     id="path84"
     style="stroke:#2d3130;stroke-opacity:1" />
</svg>
